<svg width="97" height="95" viewBox="0 0 97 95" fill="none" xmlns="http://www.w3.org/2000/svg">
<path d="M14.9457 72.658C14.9689 72.6956 16.178 71.8886 16.1966 71.9261C16.2756 72.0622 16.722 74.319 16.8011 74.4503C16.9917 74.7881 23.0229 70.3778 23.2136 70.7156C23.5251 71.2552 15.3874 77.2936 15.699 77.8331C16.6383 79.4753 45.2365 58.4371 46.1758 60.0792C47.2407 61.9419 15.4758 78.0067 16.5453 79.8694C17.4753 81.4975 44.9482 61.1537 45.8828 62.7817C46.8175 64.4098 18.8099 78.8888 19.7539 80.5403C20.6793 82.159 45.3109 63.4996 46.2316 65.1136C47.25 66.8918 17.0103 82.3326 18.0287 84.1108C18.9448 85.7154 42.2697 67.8536 43.1858 69.4535C44.1019 71.0534 16.6941 85.6075 17.6241 87.2356C18.5309 88.8261 45.7294 68.7451 46.6362 70.3356C47.5987 72.0153 19.2517 86.9587 20.2143 88.6384C21.1164 90.2102 43.1904 73.1601 44.0879 74.7318C44.9714 76.2754 18.8239 89.8583 19.7074 91.4019C20.5909 92.9455 44.0321 75.1541 44.9249 76.7118C45.8177 78.2695 19.7492 92.0259 20.6328 93.5695C21.4465 94.9959 43.3625 78.429 44.1809 79.8553C44.8505 81.0236 25.4224 91.7679 26.092 92.9361C26.7616 94.1044 45.1621 80.2588 45.8363 81.4365C46.32 82.281 32.8067 90.853 33.2904 91.7022C33.774 92.5514 44.2972 84.1155 44.7994 84.9976C45.1481 85.6028 35.8712 92.223 36.2199 92.8282C36.5687 93.4335 44.0275 87.4889 44.3669 88.0801C44.5576 88.4132 40.0842 92.6265 40.2748 92.9596C40.4655 93.2927 45.1156 89.6847 45.3109 90.0272C45.3992 90.182 47.8498 91.2189 47.9382 91.3738C47.9661 91.4207 48.1009 91.2189 48.1288 91.2659" stroke="#E5DBC8" stroke-linecap="round" stroke-linejoin="round"/>
<path d="M1.1581 61.3461C1.2325 61.4728 3.94351 59.5538 4.01791 59.6805C4.13416 59.8869 2.35782 63.1337 2.47408 63.3401C2.81353 63.936 11.8161 57.1047 12.1556 57.7005C12.4951 58.2964 3.07859 64.8743 3.432 65.489C4.82238 67.9146 41.8186 39.8903 43.209 42.316C44.5994 44.7417 2.18577 65.8737 3.60405 68.351C4.93398 70.6781 42.4138 42.6398 43.7438 44.9669C44.99 47.1439 7.7287 65.7517 8.97493 67.9287C10.2305 70.1245 41.6791 45.9522 42.9347 48.148C44.1902 50.3437 8.34251 68.3322 9.54224 70.4295C10.6908 72.4423 43.8972 47.7351 45.0505 49.7432C46.2037 51.7513 11.3046 69.477 12.4765 71.5274C13.5088 73.329 41.149 52.4222 42.1767 54.2239C43.037 55.73 17.6939 69.2612 18.5588 70.7673C19.4237 72.2734 41.8372 55.12 42.7301 56.6871C43.4555 57.9539 22.4184 69.7257 23.1438 70.9925C23.8692 72.2593 44.2925 56.9686 45.0226 58.2448" stroke="#E5DBC8" stroke-linecap="round" stroke-linejoin="round"/>
<path d="M36.6989 31.3511C36.75 31.4402 39.01 29.8872 39.0611 29.9764C39.2797 30.3564 34.0111 35.0576 34.2297 35.4376C34.4157 35.7614 42.2232 30.3517 42.4092 30.6754C42.7905 31.3417 32.3696 38.2997 32.7509 38.9659C33.0299 39.4539 40.5678 33.7627 40.8468 34.2506C41.2606 34.9732 29.919 42.5082 30.3329 43.2308C30.7095 43.8876 41.8373 35.6488 42.2139 36.3103" stroke="#E5DBC8" stroke-linecap="round" stroke-linejoin="round"/>
<path d="M18.6379 33.1296C18.6937 33.2281 21.2512 31.4733 21.307 31.5719C21.4837 31.8862 17.4056 35.9587 17.5823 36.2731C17.7404 36.5452 19.7771 34.6263 19.9352 34.9031C20.1584 35.2925 14.7364 40.0406 14.9596 40.4301C15.1828 40.8195 21.3721 36.1886 21.586 36.5687C21.8185 36.9722 16.164 41.9361 16.3965 42.3396C16.6616 42.8041 24.0878 37.2396 24.3528 37.7041C24.7016 38.314 15.1549 44.7465 15.5037 45.3565C15.8059 45.8867 25.4828 38.8395 25.7851 39.365C26.185 40.0688 15.1828 47.4209 15.5827 48.1247C15.9222 48.7158 26.4779 40.9931 26.8127 41.5842C27.2685 42.3772 14.5504 50.3064 15.0015 51.0993C15.3735 51.7514 27.7893 42.776 28.1659 43.4328C28.617 44.2257 15.8571 52.0799 16.3082 52.8728C17.1917 54.4164 40.1446 36.9299 41.0281 38.4736C41.9535 40.0922 14.5411 54.3366 15.4665 55.9553C16.3919 57.574 41.1955 38.7645 42.1395 40.416" stroke="#E5DBC8" stroke-linecap="round" stroke-linejoin="round"/>
<path d="M20.6793 32.191C20.6932 32.2192 21.2931 31.7969 21.307 31.8251C21.3907 31.9705 21.042 34.4666 21.1257 34.612C21.1396 34.6355 21.3349 34.4619 21.3489 34.4807C21.4326 34.6261 21.4 37.1128 21.4837 37.2582C21.4977 37.2817 24.1622 35.6724 24.1715 35.6911C24.297 35.9117 22.2835 39.3461 22.4091 39.5666C22.423 39.5901 26.3431 37.2441 26.357 37.2676C26.5105 37.5397 23.2787 41.2838 23.4368 41.5512C23.4507 41.5747 27.3708 39.2288 27.3847 39.2522C27.4963 39.4493 26.0269 42.6398 26.1431 42.8368C26.1571 42.8603 26.371 42.6726 26.3849 42.6961C26.4733 42.8509 25.6921 45.4971 25.7804 45.6566C25.7944 45.6801 29.7144 43.3341 29.7284 43.3576" stroke="#E5DBC8" stroke-linecap="round" stroke-linejoin="round"/>
<path d="M36.7826 31.0463C36.8384 31.1448 38.6984 29.7982 38.7542 29.8968C38.9216 30.1877 35.2713 34.1006 35.4387 34.3962C35.4666 34.4431 35.7177 34.1757 35.7456 34.2179C35.8991 34.4854 32.9416 38.3139 33.095 38.5813C33.1183 38.6236 33.3229 38.3937 33.3462 38.4359C33.4903 38.6893 30.6956 42.3817 30.8397 42.6351C30.863 42.6773 31.1002 42.4286 31.1234 42.4709" stroke="#E5DBC8" stroke-linecap="round" stroke-linejoin="round"/>
<path d="M40.3306 29.4557C40.3306 29.4557 41.1025 28.9818 41.1118 29.0005C41.242 29.2258 38.7589 32.5194 38.8891 32.7446C38.8984 32.7634 41.0607 31.4544 41.0746 31.4731C41.2002 31.6937 39.0983 35.1093 39.2239 35.3298C39.2378 35.3486 43.1439 33.0214 43.1532 33.0402C43.3206 33.3358 39.6703 37.3098 39.8423 37.6054C39.8563 37.6288 43.3253 35.5503 43.3346 35.5691C43.5066 35.8741 39.8702 40.0967 40.0469 40.4017C40.0609 40.4252 43.9995 38.0699 44.0088 38.0933C44.1902 38.4124 40.2237 42.7195 40.405 43.0385C40.419 43.062 44.3669 40.702 44.3808 40.7254C44.5529 41.0304 40.9723 45.2859 41.1444 45.5862C41.1583 45.6096 43.0881 44.4226 43.1021 44.4461C43.2276 44.6666 40.9026 47.9274 41.0281 48.1479C41.0421 48.1714 44.9993 45.802 45.0133 45.8255C45.1528 46.0694 42.4511 49.5789 42.5906 49.8229C42.6045 49.8464 45.1249 48.3121 45.1388 48.3403C45.3248 48.6593 41.4094 53.0556 41.5954 53.3793C41.6094 53.4028 45.5713 51.0287 45.5852 51.0522C45.7666 51.3665 41.6559 55.439 41.8372 55.7534C41.8512 55.7768 45.8177 53.4028 45.8317 53.4262C46.0177 53.7546 41.9209 58.1978 42.1116 58.5262C42.1255 58.5497 46.0921 56.1756 46.106 56.1991C46.2874 56.5134 42.1581 60.586 42.3395 60.9003C42.3534 60.9238 46.3199 58.5497 46.3339 58.5732C46.5199 58.9016 42.4046 63.2884 42.5906 63.6169C42.6045 63.6403 46.5664 61.2663 46.5804 61.2897C46.7664 61.6182 42.6417 66.0191 42.8324 66.3475C42.8463 66.371 46.8082 63.9969 46.8222 64.0251C46.957 64.2644 44.3343 67.741 44.4692 67.9803C44.4832 68.0037 44.7436 67.7879 44.7575 67.8114C44.8738 68.0178 43.1486 71.2411 43.2648 71.4429C43.2788 71.4663 47.2407 69.0969 47.2546 69.1204C47.436 69.4348 43.2788 73.4932 43.4601 73.8075C43.4741 73.831 47.4313 71.4616 47.4453 71.4851C47.6313 71.8135 43.4834 76.1722 43.674 76.5007C43.688 76.5241 47.6452 74.1547 47.6592 74.1782C47.8452 74.4972 43.6833 78.7105 43.8693 79.0342C43.8833 79.0577 47.8405 76.6883 47.8545 76.7118C47.9614 76.8995 46.6966 79.9679 46.8036 80.1556C46.8175 80.179 47.8963 79.4893 47.9103 79.5128C48.0684 79.7896 44.5808 83.529 44.7389 83.8058C44.7529 83.8293 47.5941 82.1121 47.608 82.1355C47.7708 82.4217 44.2599 86.3066 44.4227 86.5928C44.4367 86.6162 48.3939 84.2469 48.4078 84.2703C48.5892 84.5894 44.4088 88.7041 44.5901 89.0232C44.6041 89.0466 48.5613 86.6772 48.5752 86.7007C48.6869 86.8931 47.1151 89.9944 47.2267 90.1914C47.2407 90.2149 48.7008 89.3 48.7147 89.3234" stroke="#E5DBC8" stroke-linecap="round" stroke-linejoin="round"/>
<path d="M15.885 72.4609C15.9315 72.5406 17.7543 71.2644 17.8008 71.3442C17.945 71.5976 22.4928 71.1518 22.637 71.4052C22.6695 71.4615 24.3993 70.3026 24.4319 70.3589" stroke="#E5DBC8" stroke-linecap="round" stroke-linejoin="round"/>
<path d="M1 61.1867C1.0744 61.3181 3.85982 59.3428 3.93422 59.4789C4.05977 59.6947 2.05092 63.0447 2.17648 63.2652C2.19043 63.2887 2.36713 63.1244 2.37643 63.1479C2.44618 63.2746 3.0135 65.3155 3.08325 65.4375C3.0972 65.461 3.1158 65.3906 3.12975 65.4094C3.2181 65.5595 3.10185 68.1869 3.1902 68.3371C3.20415 68.3605 5.28275 67.0844 5.2967 67.1078C5.36645 67.2298 6.49178 68.9564 6.56153 69.0784C6.57548 69.1065 6.56153 69.0408 6.57548 69.069C6.65918 69.2144 8.84473 70.3827 8.92843 70.5282C8.94703 70.561 11.7371 68.8485 11.7557 68.8813C11.8394 69.0268 11.7231 71.5134 11.8069 71.6589C11.8255 71.6917 12.3184 71.3164 12.337 71.3492C12.4672 71.5744 16.5035 71.4055 16.6337 71.6307C16.6988 71.7387 16.722 71.4337 16.7871 71.5416C16.8755 71.6964 16.6104 74.3379 16.6988 74.4881C16.7127 74.5115 17.8473 73.789 17.8566 73.8124C17.9868 74.0376 15.5223 77.3172 15.6525 77.5424C15.6664 77.5659 18.4147 75.905 18.4286 75.9238C18.5774 76.1818 15.5502 79.8227 15.699 80.0807C15.7129 80.1042 19.6609 77.7395 19.6748 77.763C19.8376 78.0492 16.6523 82.1217 16.815 82.4079C16.829 82.4313 17.4056 82.0325 17.4195 82.056C17.4939 82.1874 17.4195 84.4957 17.4986 84.6271C17.5125 84.6506 19.1029 83.6606 19.1122 83.6841C19.2424 83.914 16.9266 87.3202 17.0568 87.5501C17.0708 87.5736 21.028 85.2089 21.0373 85.2324C21.2047 85.5279 17.7171 89.6521 17.8845 89.9477C17.8985 89.9711 18.2054 89.7318 18.2193 89.7553C18.2891 89.8773 18.689 91.9464 18.7588 92.0731C18.7727 92.0965 19.0285 91.8807 19.0424 91.9088C19.1587 92.1106 22.7486 92.3123 22.8648 92.5141C22.8881 92.5563 24.0599 91.7634 24.0831 91.8056C24.1761 91.9698 26.9895 92.5469 27.0825 92.7111C27.1057 92.7534 27.3289 92.5094 27.3522 92.5516C27.4545 92.7299 30.5979 92.9551 30.7002 93.1334C30.7235 93.1756 30.7607 93.0396 30.7839 93.0865C30.9188 93.3211 35.1643 92.866 35.2992 93.1006C35.3224 93.1428 35.3503 93.0114 35.3736 93.0583C35.4759 93.2413 38.6705 93.4618 38.7728 93.6401C38.7961 93.6824 42.0651 91.6649 42.0884 91.7071C42.1814 91.8666 44.9342 92.3921 45.0272 92.5516C45.0505 92.5938 45.2923 92.3405 45.3202 92.3827" stroke="#E5DBC8" stroke-linecap="round" stroke-linejoin="round"/>
<path d="M1.27901 61.5008C1.32086 61.5712 3.2832 60.2387 3.32505 60.3091C3.51106 60.6375 9.32369 59.0235 9.5097 59.3519C9.5562 59.4364 13.7273 56.7808 13.7785 56.8653" stroke="#E5DBC8" stroke-linecap="round" stroke-linejoin="round"/>
<path d="M18.489 32.9653C18.5495 33.0733 21.214 31.2341 21.2745 31.342C21.4651 31.6751 16.9824 35.9306 17.1731 36.2637C17.1917 36.2919 17.1963 36.2121 17.2149 36.2402C17.3544 36.4889 14.6248 40.0453 14.7643 40.294C14.7783 40.3221 15.5595 39.7967 15.5734 39.8201C15.6478 39.9468 16.1175 42.0816 16.1919 42.2083C16.2058 42.2317 16.8894 41.7672 16.9034 41.7907C17.015 41.9877 15.1735 45.0327 15.2851 45.2298C15.2991 45.2533 17.2242 44.0662 17.2382 44.0897C17.3684 44.3149 15.2293 47.7775 15.3549 48.0027C15.3688 48.0261 17.2196 46.8813 17.2335 46.9095C17.373 47.1581 14.6388 50.7239 14.7783 50.9726C14.7922 50.9961 17.5404 49.3305 17.5544 49.3539C17.6567 49.5322 16.243 52.413 16.3453 52.5913C16.3593 52.6194 16.3547 52.5491 16.3686 52.5772C16.4709 52.7508 15.1968 55.6128 15.2991 55.7864C15.327 55.838 15.5502 55.5706 15.5781 55.6222" stroke="#E5DBC8" stroke-linecap="round" stroke-linejoin="round"/>
<path d="M71.0446 53.4915C71.0725 53.5385 71.691 53.0505 71.7189 53.0974C71.9095 53.4352 67.464 57.7752 67.6547 58.113C67.7709 58.3147 71.8026 55.4293 71.9188 55.631" stroke="#E5DBC8" stroke-linecap="round" stroke-linejoin="round"/>
<path d="M56.4386 52.5906C56.4619 52.6281 57.0896 52.1589 57.1129 52.1965C57.178 52.3138 58.5265 53.7495 58.5963 53.8668C58.6521 53.9653 60.1168 52.8486 60.1726 52.9472C60.3726 53.2944 55.8852 57.8642 56.0852 58.2114C56.1875 58.3897 61.2561 54.96 61.3584 55.1383C61.5305 55.4338 58.0336 59.5955 58.2057 59.8911C58.3638 60.1632 62.6791 56.9211 62.8372 57.1933C63.079 57.6155 57.2524 62.8563 57.4942 63.2833C57.736 63.7102 64.2647 58.7932 64.4972 59.2014C64.8646 59.8489 54.7832 66.6473 55.1552 67.2948C55.6899 68.2332 69.5426 57.6625 70.0774 58.6008C70.6772 59.6471 53.5881 69.7205 54.188 70.7667C54.7367 71.7286 69.7984 60.3931 70.3471 61.3549C70.8632 62.2605 56.2619 71.1937 56.7781 72.0992C57.3779 73.1455 70.6958 62.5936 71.2957 63.6399C71.8956 64.6861 54.002 74.98 54.6251 76.0685C55.2854 77.218 72.0816 64.3671 72.7372 65.5166C73.3929 66.6661 54.7553 77.0585 55.397 78.1798C56.1271 79.456 74.0114 65.6339 74.7414 66.9101C75.5552 68.3364 51.6676 81.2389 52.486 82.6652C53.3044 84.0916 78.9358 65.3148 79.7682 66.774C80.7029 68.4068 53.0998 82.8248 54.0345 84.4575C54.9692 86.0903 80.7494 66.7834 81.6561 68.3692C82.642 70.0958 53.3742 85.1613 54.36 86.8879C55.2854 88.5019 80.6145 69.4436 81.5399 71.0576C82.5676 72.8499 52.1791 88.6286 53.2068 90.4208C53.9322 91.6876 71.7003 77.9593 72.4257 79.2261C73.0999 80.4085 53.4579 91.3498 54.1322 92.5322C54.7553 93.6254 72.0025 80.6665 72.6256 81.7597C73.1325 82.6465 58.9218 91.5 59.4286 92.3867C59.8657 93.1515 73.8486 82.9655 74.2857 83.7303C74.6298 84.3308 65.2971 90.6695 65.6412 91.2701C65.9202 91.7533 72.5001 86.6298 72.7744 87.1131C72.9604 87.4368 68.873 91.8002 69.059 92.124C69.1474 92.2788 72.142 90.1252 72.2257 90.2801" stroke="#E5DBC8" stroke-linecap="round" stroke-linejoin="round"/>
<path d="M58.3219 51.7322C58.3219 51.7322 59.038 51.2865 59.052 51.3053C59.1357 51.4554 59.0241 54.0031 59.1124 54.1485C59.1264 54.172 59.8286 53.7028 59.8379 53.7262C59.9309 53.8858 58.9078 56.5085 59.0008 56.668C59.0148 56.6915 60.6377 55.6874 60.6516 55.7062C60.726 55.8376 60.9492 58.0568 61.0236 58.1835C61.0376 58.2069 61.7305 57.7425 61.7398 57.7659C61.8095 57.8879 61.9769 59.9429 62.0467 60.0649C62.0606 60.0884 64.8879 58.3805 64.9018 58.3993" stroke="#E5DBC8" stroke-linecap="round" stroke-linejoin="round"/>
<path d="M68.9149 54.4722C68.9474 54.5332 69.617 53.9843 69.6496 54.0453C69.8356 54.3737 65.6505 58.7043 65.8365 59.028C65.8644 59.0796 68.6312 57.3295 68.6591 57.3859" stroke="#E5DBC8" stroke-linecap="round" stroke-linejoin="round"/>
<path d="M71.7189 53.3178C71.7189 53.3178 71.9653 53.1442 71.9793 53.1677C72.0862 53.3507 70.6819 56.3253 70.7889 56.5083C70.8028 56.5318 72.1234 55.6966 72.1374 55.7201C72.235 55.8937 71.4166 58.8307 71.5143 59.0043C71.5282 59.0278 73.8951 57.5874 73.9091 57.6109C74.0207 57.8079 72.156 60.8482 72.2676 61.05C72.2815 61.0688 73.4022 60.3603 73.4162 60.3791C73.5185 60.562 72.3652 63.5554 72.4722 63.7384C72.4861 63.7619 73.179 63.2974 73.193 63.3161C73.2767 63.4616 73.2674 66.0046 73.3511 66.15C73.365 66.1735 73.5464 66.0092 73.5603 66.028C73.6254 66.1406 74.5089 67.7828 74.574 67.8907C74.588 67.9141 78.0523 65.831 78.0663 65.8544C78.1872 66.0656 76.5457 69.4249 76.6666 69.636C76.6805 69.6595 77.8477 68.9135 77.8617 68.937C77.9361 69.0636 79.0009 70.9357 79.0753 71.0624C79.0893 71.0858 81.2702 69.7533 81.2841 69.7768C81.5818 70.2976 73.8347 76.2468 74.1323 76.7676C74.3415 77.1289 79.8287 72.9672 80.0333 73.3285C80.3076 73.8071 73.3092 79.3716 73.5836 79.8502C73.5975 79.8783 74.774 79.1229 74.7879 79.1464C74.9507 79.4326 71.4399 83.3784 71.6073 83.6693C71.6212 83.6975 74.2253 82.1069 74.2392 82.1351C74.4531 82.5057 69.5054 87.2304 69.7147 87.6011C69.7286 87.6292 71.8026 86.3483 71.8212 86.3765C71.9142 86.536 71.1097 89.262 71.2027 89.4215C71.2167 89.4496 72.0165 88.9101 72.0351 88.9382" stroke="#E5DBC8" stroke-linecap="round" stroke-linejoin="round"/>
<path d="M56.234 52.4546C56.2666 52.5062 57.1129 51.8728 57.1408 51.9244C57.2059 52.037 58.3219 53.6181 58.387 53.7307C58.401 53.7589 58.7497 53.4821 58.7637 53.5102C58.9264 53.7917 55.7132 57.7939 55.8713 58.0754C55.8853 58.1035 58.6335 56.4285 58.6474 56.4567C58.7497 56.6303 57.8848 59.5815 57.9871 59.7597C58.0011 59.7879 58.5219 59.4125 58.5405 59.4407C58.6567 59.6424 57.1594 62.9502 57.2756 63.1519C57.2896 63.1801 57.936 62.7297 57.9499 62.7578C58.0848 62.9971 55.5179 66.5066 55.6528 66.7459C55.6667 66.774 56.4572 66.2392 56.4758 66.2673C56.6246 66.5301 53.8206 70.3727 53.9741 70.6354C53.988 70.6636 54.6809 70.185 54.6948 70.2131C54.7785 70.3586 54.6995 72.8546 54.7832 73.0001C54.7971 73.0282 55.5923 72.4934 55.6063 72.5215C55.7132 72.7139 54.2484 75.7777 54.3554 75.9653C54.3693 75.9935 55.1645 75.4586 55.1784 75.4868C55.2807 75.6697 53.8392 78.5834 53.9462 78.7664C53.9601 78.7945 54.7553 78.2596 54.7692 78.2878C54.918 78.5458 52.128 82.2758 52.2721 82.5339C52.2861 82.562 55.9411 80.3569 55.9597 80.385C56.0945 80.6196 53.6904 84.0869 53.8253 84.3215C53.8392 84.3496 55.6946 83.1954 55.7132 83.2236C55.8295 83.4253 54.0392 86.5501 54.1554 86.7472C54.1694 86.7753 55.1319 86.1419 55.1459 86.1701C55.3179 86.4656 51.7792 90.5945 51.9513 90.89C51.9699 90.9182 52.7743 90.3739 52.7883 90.4021C52.858 90.5288 53.2579 92.6119 53.3277 92.7386C53.351 92.7809 54.467 92.0208 54.4902 92.063C54.6158 92.2788 58.494 92.3774 58.6195 92.5979C58.6428 92.6401 61.5165 90.8572 61.5398 90.8994C61.6049 91.012 62.7953 92.5181 62.8604 92.6307C62.8837 92.6729 63.9021 91.9692 63.9253 92.0114C64.0555 92.2366 68.0871 92.1334 68.2173 92.3586C68.2406 92.4008 69.5473 91.5281 69.5705 91.5704" stroke="#E5DBC8" stroke-linecap="round" stroke-linejoin="round"/>
<path d="M24.576 57.5694C25.4492 57.5694 26.1571 56.8551 26.1571 55.9741C26.1571 55.0931 25.4492 54.3789 24.576 54.3789C23.7028 54.3789 22.995 55.0931 22.995 55.9741C22.995 56.8551 23.7028 57.5694 24.576 57.5694Z" fill="#5889A5"/>
<path d="M66.999 68.8668C67.5794 68.8668 68.0499 68.3921 68.0499 67.8064C68.0499 67.2208 67.5794 66.7461 66.999 66.7461C66.4186 66.7461 65.9481 67.2208 65.9481 67.8064C65.9481 68.3921 66.4186 68.8668 66.999 68.8668Z" fill="#5889A5"/>
<path d="M59.3077 72.8174L63.3533 72.8456C63.7253 72.8456 63.73 72.2638 63.3533 72.2591L59.3077 72.231C58.9357 72.231 58.9311 72.8127 59.3077 72.8174Z" fill="#5889A5"/>
<path d="M59.7076 75.6843C61.0236 75.3887 62.3396 75.0931 63.6556 74.7975C64.0183 74.7178 63.8648 74.1501 63.5021 74.2298C62.1861 74.5254 60.8702 74.821 59.5542 75.1166C59.1915 75.1963 59.3449 75.7641 59.7076 75.6843Z" fill="#5889A5"/>
<path d="M13.3999 22.0537C13.5084 22.4169 13.6142 22.7181 13.7175 22.9574C13.8245 23.1849 13.9521 23.3386 14.1002 23.4185C14.256 23.4944 14.442 23.4867 14.6581 23.3953C14.8742 23.3039 15.1474 23.115 15.4778 22.8286C15.5239 22.7855 15.5527 22.7658 15.5644 22.7695C15.5838 22.7693 15.5859 22.7829 15.5706 22.8102C15.5631 22.8335 15.5479 22.8608 15.525 22.892C15.4412 23.0325 15.3379 23.1634 15.2151 23.2848C15.1 23.4023 14.9751 23.5005 14.8402 23.5794C14.7015 23.6506 14.5625 23.7025 14.4233 23.7349C14.2841 23.7674 14.1561 23.7648 14.0394 23.7273C13.8061 23.6522 13.6086 23.4856 13.447 23.2276C13.2815 22.9619 13.1563 22.6705 13.0716 22.3536C12.9992 22.0985 12.9403 21.8414 12.895 21.5822C12.8457 21.3152 12.8256 21.0577 12.8347 20.8095C12.8475 20.5497 12.8895 20.3089 12.9609 20.0872C13.036 19.8539 13.154 19.6472 13.3149 19.4673C13.3954 19.3773 13.4934 19.3026 13.6091 19.2433C13.7247 19.1839 13.8368 19.1459 13.9451 19.1293C14.0535 19.1127 14.1543 19.1194 14.2477 19.1494C14.3487 19.1755 14.4287 19.227 14.4876 19.3039C14.5389 19.3848 14.5708 19.4755 14.5835 19.5762C14.5922 19.6691 14.5835 19.7661 14.5575 19.8672C14.5391 19.9642 14.5071 20.0537 14.4614 20.1356C14.4157 20.2175 14.3602 20.2801 14.2947 20.3234C14.241 20.3705 14.2004 20.3864 14.1732 20.3712C14.1536 20.352 14.1591 20.3248 14.1897 20.2896C14.2166 20.2661 14.2433 20.2231 14.2698 20.1608C14.3 20.0869 14.3206 20.013 14.3315 19.9393C14.35 19.8616 14.3531 19.7821 14.3406 19.7008C14.3281 19.6195 14.2925 19.5501 14.2338 19.4926C14.1946 19.4542 14.1228 19.4472 14.0184 19.4716C13.9218 19.492 13.7946 19.5669 13.6371 19.6965C13.518 19.8063 13.4265 19.9506 13.3625 20.1296C13.2945 20.3008 13.2539 20.497 13.2407 20.7181C13.2235 20.9314 13.2278 21.1581 13.2536 21.3982C13.2831 21.6266 13.3319 21.8451 13.3999 22.0537ZM14.7612 24.3651C14.8383 24.3256 14.8808 24.3135 14.8887 24.3289C14.8927 24.3366 14.8889 24.3483 14.8775 24.3639C14.8737 24.3756 14.8487 24.3933 14.8024 24.417C14.6368 24.5118 14.4632 24.5911 14.2817 24.655C14.1001 24.7189 13.9164 24.7499 13.7303 24.748C13.5403 24.7383 13.3518 24.6938 13.1649 24.6143C12.9818 24.5232 12.8078 24.3738 12.6428 24.1662C12.3837 23.8511 12.1708 23.5025 12.004 23.1205C11.8372 22.7385 11.7227 22.3444 11.6603 21.938C11.5979 21.5317 11.5879 21.1229 11.6301 20.7116C11.6761 20.2886 11.7881 19.8804 11.9662 19.4871C12.0949 19.1873 12.2899 18.9314 12.5513 18.7194C12.8087 18.4996 13.0822 18.3398 13.3719 18.2399C13.6693 18.136 13.9558 18.1059 14.2314 18.1496C14.5148 18.1893 14.7429 18.3206 14.9158 18.5436C14.9706 18.5934 14.9923 18.6359 14.9811 18.6709C14.9579 18.6827 14.915 18.656 14.8523 18.5908C14.6573 18.4765 14.4647 18.4049 14.2745 18.3759C14.0843 18.3468 13.8983 18.3546 13.7166 18.3991C13.5386 18.432 13.3707 18.4938 13.2127 18.5846C13.0547 18.6754 12.9162 18.7757 12.7972 18.8854C12.5592 19.105 12.3909 19.3277 12.2925 19.5535C12.1901 19.7716 12.1055 20.0244 12.0388 20.312C11.935 20.7743 11.9225 21.2434 12.0011 21.7194C12.0834 22.1836 12.212 22.6242 12.3869 23.041C12.4704 23.2416 12.5771 23.4402 12.7071 23.6365C12.8331 23.8251 12.9958 24.0095 13.1954 24.1896C13.391 24.3619 13.6382 24.464 13.937 24.4958C14.2318 24.5199 14.5065 24.4763 14.7612 24.3651ZM12.4288 22.0405C12.3445 21.7623 12.2778 21.4897 12.2285 21.2228C12.1752 20.9482 12.1608 20.6828 12.1853 20.4267C12.2135 20.159 12.2903 19.9004 12.4156 19.651C12.5409 19.4017 12.7303 19.1633 12.9838 18.9358C13.0722 18.8613 13.1857 18.7884 13.3245 18.7172C13.471 18.642 13.6256 18.5919 13.7881 18.567C13.9467 18.5343 14.1095 18.5384 14.2766 18.5793C14.4398 18.6125 14.5937 18.6943 14.7385 18.8245C14.8716 18.9511 14.9563 19.0878 14.9927 19.2347C15.0292 19.3816 15.0365 19.5288 15.0148 19.6763C14.9891 19.8161 14.9401 19.9484 14.8677 20.0732C14.7992 20.1864 14.7206 20.2705 14.632 20.3257C14.6166 20.3336 14.5915 20.3416 14.5567 20.3497C14.5296 20.3539 14.5409 20.3286 14.5908 20.2738C14.6558 20.1917 14.7011 20.0711 14.7265 19.9119C14.7597 19.7488 14.7482 19.5745 14.692 19.389C14.6396 19.1919 14.5142 19.0614 14.3158 18.9975C14.1175 18.9337 13.9083 18.9436 13.6882 19.0273C13.4759 19.1071 13.3046 19.2193 13.1743 19.3641C13.044 19.5088 12.9428 19.6533 12.8706 19.7975C12.7985 19.9416 12.7495 20.0739 12.7236 20.1944C12.6938 20.3071 12.6732 20.3809 12.662 20.4159C12.5663 20.9131 12.537 21.4444 12.5739 22.0099C12.5778 22.0176 12.5803 22.0699 12.5813 22.1668C12.59 22.2598 12.5867 22.3102 12.5713 22.3181C12.5558 22.326 12.5422 22.3184 12.5303 22.2953C12.5145 22.2644 12.4987 22.2336 12.4829 22.2027C12.4747 22.1679 12.4628 22.1351 12.4469 22.1043C12.4388 22.0695 12.4328 22.0482 12.4288 22.0405ZM15.8394 22.9353C15.825 23.0401 15.7893 23.1509 15.7324 23.2678C15.6832 23.3807 15.6146 23.4938 15.5266 23.6072C15.4424 23.7088 15.3465 23.8067 15.2389 23.9009C15.1391 23.991 15.0314 24.0658 14.9157 24.1252C14.7152 24.228 14.5065 24.2864 14.2896 24.3003C14.0727 24.3142 13.8372 24.2158 13.583 24.0053C13.5245 23.9671 13.5027 23.9247 13.5177 23.8781C13.5369 23.8585 13.5718 23.8601 13.6224 23.8828C13.6768 23.8938 13.7293 23.9107 13.78 23.9335C13.9083 23.9748 14.0713 23.9983 14.2691 24.004C14.4706 23.998 14.6291 23.9653 14.7448 23.906C14.9761 23.7873 15.1685 23.6496 15.3219 23.493C15.4791 23.3247 15.6071 23.147 15.7059 22.9599C15.7174 22.9443 15.7307 22.9229 15.746 22.8956C15.7649 22.8566 15.7821 22.8332 15.7975 22.8253C15.809 22.8096 15.8187 22.8095 15.8266 22.825C15.8422 22.8364 15.8465 22.8732 15.8394 22.9353Z" fill="#E5DBC8"/>
<path d="M23.0831 15.3676C23.1283 15.7182 23.1283 16.0841 23.0832 16.4652C23.038 16.8464 22.9942 17.2042 22.9516 17.5387C22.949 17.5579 22.9381 17.5936 22.9192 17.6457C22.9084 17.6951 22.8948 17.7226 22.8784 17.7281C22.851 17.7282 22.8303 17.7077 22.8165 17.6667C22.7998 17.6174 22.7887 17.5846 22.7832 17.5681C22.7665 17.4915 22.7497 17.4011 22.7328 17.297C22.7214 17.1819 22.7059 17.0683 22.6863 16.956C22.6639 16.8355 22.6443 16.7232 22.6274 16.6191C22.616 16.504 22.6088 16.4013 22.6057 16.3109C22.5853 16.0067 22.5665 15.7478 22.5493 15.5341C22.5292 15.3122 22.5038 15.1149 22.473 14.9424C22.4422 14.7699 22.4018 14.6097 22.3519 14.4619C22.3102 14.3113 22.248 14.154 22.1651 13.9898C22.1347 13.9269 22.125 13.8845 22.1359 13.8625C22.1495 13.8488 22.1728 13.85 22.2058 13.8664C22.2387 13.8827 22.2675 13.9004 22.2923 13.9195C22.5067 14.094 22.6843 14.3085 22.8251 14.5628C22.9631 14.809 23.0491 15.0772 23.0831 15.3676ZM23.1001 14.4426C23.2595 14.5625 23.3822 14.7498 23.4681 15.0044C23.554 15.2589 23.6181 15.53 23.6603 15.8176C23.6998 16.097 23.7241 16.3723 23.7334 16.6436C23.7427 16.9149 23.7558 17.13 23.7729 17.2889C23.8042 17.5985 23.8109 17.9164 23.793 18.2426C23.775 18.5688 23.7625 18.8566 23.7552 19.106C23.7553 19.1334 23.7527 19.1663 23.7473 19.2047C23.7392 19.2349 23.727 19.2528 23.7106 19.2583C23.6941 19.2638 23.6804 19.2502 23.6693 19.2173C23.6582 19.1845 23.6485 19.1558 23.6402 19.1311C23.4631 18.6878 23.364 18.2319 23.343 17.7633C23.3193 17.2865 23.3023 16.8029 23.2922 16.3123C23.2829 16.0136 23.268 15.7122 23.2477 15.4081C23.2245 15.0957 23.152 14.7726 23.0302 14.4387C23.0191 14.4059 23.0176 14.3881 23.0258 14.3853L23.1001 14.4426ZM21.8716 14.6241C21.44 14.9984 21.1128 15.4382 20.89 15.9434C20.6726 16.4375 20.5499 16.9546 20.5219 17.4946C20.5118 17.7358 20.5154 17.9496 20.5326 18.1359C20.5469 18.314 20.5751 18.5057 20.617 18.7111C20.6226 18.7549 20.6488 18.7918 20.6955 18.8218C20.7422 18.8518 20.7751 18.8407 20.7941 18.7885C20.8809 18.558 20.9921 18.2643 21.1278 17.9075C21.2634 17.5507 21.3935 17.1775 21.5181 16.7878C21.6427 16.3981 21.7412 16.0127 21.8138 15.6315C21.8945 15.2475 21.9138 14.9117 21.8716 14.6241ZM22.456 19.0781C22.3911 19.2921 22.3261 19.4925 22.261 19.6791C22.1959 19.8657 22.113 20.04 22.0122 20.2021C21.9087 20.356 21.7818 20.4949 21.6315 20.6188C21.4813 20.7427 21.2967 20.8462 21.0777 20.9293C20.7138 21.0704 20.3986 21.0716 20.1322 20.9329C19.874 20.7914 19.6581 20.5853 19.4844 20.3146C19.3107 20.044 19.1794 19.7499 19.0905 19.4323C19.007 19.1037 18.9634 18.8257 18.9598 18.5983C18.9531 18.2804 18.9684 17.9733 19.0056 17.6772C19.0483 17.3701 19.1048 17.0903 19.175 16.8379C19.2508 16.5745 19.3376 16.344 19.4355 16.1463C19.5388 15.9376 19.6505 15.7672 19.7706 15.6352C19.7788 15.6324 19.7925 15.6187 19.8116 15.594C19.8389 15.5664 19.8567 15.565 19.865 15.5896C19.8732 15.5869 19.8733 15.6006 19.8652 15.6307C19.8571 15.6609 19.8476 15.687 19.8367 15.709C19.5594 16.2965 19.3877 16.9125 19.3217 17.5568C19.2639 18.1983 19.3183 18.8202 19.4851 19.4225C19.5268 19.5731 19.5849 19.7319 19.6596 19.8987C19.7424 20.0629 19.8389 20.2132 19.9491 20.3498C20.0647 20.4755 20.198 20.5722 20.349 20.6402C20.4972 20.6999 20.6698 20.6965 20.8669 20.63C21.0229 20.5773 21.1583 20.5042 21.2731 20.4105C21.385 20.3087 21.4846 20.1973 21.5719 20.0764C21.6563 19.9473 21.7271 19.8182 21.7842 19.6891C21.8467 19.5491 21.8996 19.4215 21.943 19.3062C22.0379 19.0455 22.1178 18.7807 22.1825 18.5119C22.1271 18.3476 22.0812 18.1847 22.045 18.0232C22.0169 17.8589 21.9971 17.6917 21.9855 17.5219C21.9713 17.3986 21.9613 17.3013 21.9556 17.2301C21.9553 17.1479 21.9536 17.0753 21.9506 17.0122C21.9531 16.9382 21.9514 16.8656 21.9457 16.7944C21.9454 16.7122 21.9463 16.6066 21.9486 16.4778C21.8948 16.7521 21.8369 17.014 21.7748 17.2637C21.7182 17.5023 21.6479 17.7411 21.5638 17.9798C21.4852 18.2076 21.3984 18.4381 21.3034 18.6715C21.2138 18.8938 21.1092 19.1258 20.9895 19.3674C20.897 19.5541 20.7973 19.6381 20.6904 19.6193C20.5834 19.6006 20.4912 19.5036 20.4138 19.3285C20.3031 19.0549 20.224 18.7798 20.1763 18.5031C20.1369 18.2237 20.1261 17.9209 20.144 17.5947C20.1621 17.2959 20.2075 16.997 20.2804 16.698C20.3614 16.3962 20.4713 16.1121 20.6101 15.8458C20.7543 15.5684 20.9301 15.317 21.1375 15.0914C21.3421 14.8577 21.5799 14.6677 21.8506 14.5214C21.8365 14.4255 21.8225 14.3433 21.8086 14.2749C21.8028 14.2036 21.7929 14.1338 21.779 14.0653C21.7649 13.9695 21.7579 13.9215 21.7579 13.9215C21.7715 13.9078 21.7907 13.9104 21.8155 13.9295C21.8484 13.9458 21.88 13.9717 21.9103 14.0073C22.1003 14.245 22.2247 14.5049 22.2833 14.7869C22.3419 15.069 22.3732 15.3648 22.3771 15.6745C22.3893 15.9814 22.3878 16.3021 22.3726 16.6365C22.3547 16.9627 22.3587 17.2861 22.3846 17.6067C22.4274 18.0587 22.5456 18.5036 22.7391 18.9414C22.9381 19.3682 23.2505 19.7109 23.6763 19.9696C23.712 19.9942 23.7299 20.0064 23.7299 20.0064C23.7244 20.0174 23.697 20.0175 23.6477 20.0067C23.3596 19.9393 23.1194 19.8238 22.9269 19.6601C22.7399 19.4854 22.5829 19.2914 22.456 19.0781ZM21.415 14.5724C21.437 14.5832 21.4371 14.597 21.4152 14.6135C21.4016 14.6272 21.3647 14.6534 21.3045 14.692C21.2089 14.7609 21.0983 14.8668 20.9727 15.0098C20.8554 15.1501 20.7341 15.3191 20.6088 15.5169C20.4917 15.7119 20.3829 15.9316 20.2825 16.1759C20.1792 16.412 20.1021 16.6576 20.051 16.9127C20.0027 17.1759 19.9694 17.4296 19.9511 17.6736C19.9411 17.9148 19.9378 18.1354 19.9413 18.3355C19.9503 18.5246 19.9646 18.6889 19.9843 18.8286C20.0013 18.9601 20.0181 19.0505 20.0347 19.0998C20.0763 19.2229 20.1207 19.3543 20.1678 19.4939C20.2121 19.6253 20.2688 19.7388 20.3376 19.8345C20.4065 19.9301 20.4917 19.9928 20.5933 20.0226C20.6948 20.0524 20.8235 20.0272 20.9794 19.9471C20.9876 19.9443 21.0067 19.9333 21.0368 19.914C21.0641 19.8865 21.0928 19.8631 21.1229 19.8438C21.1502 19.8163 21.1748 19.7943 21.1966 19.7777C21.2267 19.7584 21.2458 19.7474 21.2541 19.7446C21.2678 19.7583 21.2665 19.7816 21.2502 19.8145C21.2421 19.8447 21.2272 19.8818 21.2054 19.9257C21.1809 19.9614 21.1564 19.9971 21.1318 20.0329C21.1155 20.0658 21.1046 20.0878 21.0992 20.0988C20.9355 20.2912 20.7755 20.3864 20.6193 20.3843C20.4631 20.3821 20.3217 20.3292 20.1953 20.2256C20.0742 20.1109 19.9668 19.9688 19.873 19.7993C19.7846 19.6187 19.7195 19.4532 19.6778 19.3026C19.5972 19.0096 19.5468 18.7111 19.5264 18.407C19.5033 18.0946 19.5007 17.7753 19.5186 17.4491C19.5341 17.1969 19.5933 16.9254 19.6964 16.6345C19.7966 16.3354 19.9243 16.0498 20.0795 15.7779C20.2429 15.5032 20.427 15.2627 20.6317 15.0564C20.8337 14.8418 21.0483 14.6916 21.2754 14.6058C21.3575 14.5781 21.4041 14.5669 21.415 14.5724ZM24.0088 19.8574C24.0336 19.8764 24.0432 19.8915 24.0378 19.9025C24.0132 19.9108 23.9775 19.9137 23.9309 19.9111C23.9008 19.903 23.8184 19.8759 23.684 19.8298C23.5495 19.7838 23.4271 19.6787 23.3169 19.5147C23.2783 19.4545 23.2341 19.378 23.1845 19.285C23.1402 19.181 23.1028 19.0839 23.0723 18.9935C23.0418 18.9032 23.0196 18.8238 23.0056 18.7554C22.9999 18.6841 23.0093 18.6443 23.034 18.636C23.0586 18.6277 23.0999 18.6687 23.1578 18.7589C23.2239 18.8463 23.2652 18.901 23.2817 18.9228C23.3452 19.0295 23.4003 19.1252 23.4473 19.21C23.4996 19.2838 23.5506 19.3535 23.6002 19.4191C23.6635 19.4983 23.7392 19.5871 23.8273 19.6854C23.9236 19.7809 23.9841 19.8383 24.0088 19.8574Z" fill="#E5DBC8"/>
<path d="M31.2961 13.8215C31.2426 14.3527 31.2305 14.9005 31.2599 15.4647C31.2893 16.029 31.3938 16.566 31.5734 17.0758C31.5842 17.0919 31.5822 17.1096 31.5672 17.129C31.5619 17.1559 31.5479 17.149 31.5252 17.1083C31.3423 16.8436 31.2019 16.569 31.1039 16.2846C31.0145 15.999 30.9514 15.7144 30.9147 15.4308C30.8768 15.1386 30.8605 14.8436 30.8656 14.5458C30.8707 14.248 30.8893 13.9528 30.9213 13.6603C30.9255 13.6248 30.9338 13.5538 30.9462 13.4473C30.9575 13.3322 30.9608 13.2226 30.956 13.1183C30.9587 13.0044 30.9476 12.9184 30.9226 12.8605C30.8976 12.8025 30.8461 12.8092 30.7679 12.8805C30.5892 13.0522 30.4283 13.261 30.2853 13.5067C30.1499 13.7427 30.0439 13.9705 29.9675 14.1902C29.9611 14.2085 29.9463 14.2628 29.9231 14.3532C29.9073 14.4339 29.8883 14.5238 29.8662 14.6228C29.8527 14.7206 29.8391 14.8185 29.8256 14.9164C29.8109 15.0057 29.801 15.0638 29.7957 15.0907C29.7615 15.366 29.7084 15.6307 29.6364 15.8847C29.5644 16.1387 29.5074 16.3733 29.4654 16.5885C29.4507 16.6778 29.4385 16.7187 29.4288 16.7112C29.3859 16.7168 29.3594 16.6809 29.3493 16.6035C29.2518 16.188 29.2339 15.7796 29.2955 15.3783C29.3647 14.9674 29.4413 14.5467 29.5253 14.1163C29.5768 13.8388 29.6202 13.5666 29.6556 13.2999C29.6984 13.0234 29.6949 12.7267 29.6452 12.4098C29.6076 12.1875 29.6609 11.9577 29.805 11.7206C29.9576 11.4823 30.2007 11.2673 30.5342 11.0756C30.7293 10.9629 30.9177 10.8992 31.0993 10.8844C31.2809 10.8696 31.4535 10.8866 31.6171 10.9353C31.7807 10.9841 31.931 11.0651 32.0681 11.1784C32.2051 11.2918 32.3223 11.4208 32.4197 11.5655C32.459 11.4642 32.5236 11.3554 32.6133 11.2389C32.702 11.1138 32.8101 11.0037 32.9376 10.9085C33.0737 10.8122 33.2255 10.7358 33.3929 10.6791C33.5678 10.6128 33.765 10.5829 33.9843 10.5894C34.1423 10.5952 34.2822 10.6295 34.404 10.6924C34.5343 10.7542 34.6492 10.831 34.7485 10.923C34.8553 11.0053 34.9411 11.0947 35.006 11.1912C35.071 11.2876 35.1208 11.3686 35.1555 11.434C35.2867 11.7054 35.3752 12.0173 35.4208 12.3697C35.4751 12.721 35.4819 13.0434 35.4413 13.3371C35.3724 13.8179 35.2712 14.2505 35.1374 14.6348C35.0123 15.0181 34.938 15.3554 34.9146 15.6468C34.901 15.7447 34.8899 15.7942 34.8814 15.7953C34.847 15.7998 34.8233 15.7854 34.8102 15.7521C34.8058 15.7177 34.797 15.6839 34.784 15.6506C34.7434 15.4724 34.7354 15.2418 34.7599 14.959C34.792 14.6665 34.8303 14.3556 34.8751 14.0265C34.9188 13.6887 34.9533 13.3478 34.9786 13.0037C35.004 12.6596 34.994 12.3463 34.9486 12.0638C34.9022 11.7727 34.8049 11.5275 34.6567 11.3282C34.5086 11.1289 34.2834 11.0095 33.9811 10.97C33.7413 10.9399 33.535 10.9666 33.3623 11.0501C33.1971 11.124 33.0588 11.2031 32.9473 11.2874C32.7824 11.4311 32.6831 11.5751 32.6493 11.7193C32.6145 11.8549 32.6048 11.9828 32.6204 12.1031C32.732 11.8178 32.8981 11.5822 33.1187 11.3963C33.3383 11.2018 33.618 11.135 33.958 11.1958C34.1817 11.2368 34.3488 11.3462 34.4593 11.5242C34.5783 11.701 34.6572 11.9049 34.6958 12.1359C34.7344 12.3668 34.7387 12.6022 34.7086 12.8421C34.6871 13.0808 34.6477 13.2825 34.5904 13.4473C34.584 13.4656 34.5681 13.5113 34.5426 13.5845C34.516 13.6492 34.4807 13.6799 34.4366 13.6769C34.428 13.678 34.4192 13.6442 34.4103 13.5754C34.41 13.5056 34.4076 13.4534 34.4032 13.4191C34.4156 13.3126 34.4172 13.19 34.408 13.0514C34.3988 12.9128 34.3804 12.771 34.3529 12.626C34.334 12.4798 34.307 12.3391 34.272 12.2039C34.237 12.0686 34.1962 11.9559 34.1496 11.8658C34.091 11.751 34.0123 11.6826 33.9133 11.6604C33.8217 11.6286 33.7255 11.6279 33.6246 11.6585C33.5237 11.689 33.425 11.7368 33.3286 11.8017C33.2407 11.8655 33.1663 11.932 33.1053 12.001C32.9374 12.1888 32.8408 12.3542 32.8157 12.4973C32.7894 12.6318 32.7745 12.7867 32.771 12.9619C32.8518 12.7767 32.9559 12.6015 33.0831 12.4365C33.2177 12.2617 33.352 12.1176 33.4859 12.0042C33.5588 11.9598 33.6216 11.9385 33.6742 11.9404C33.7355 11.9412 33.7861 11.9609 33.8261 11.9994C33.8735 12.0282 33.9097 12.0716 33.9347 12.1296C33.9586 12.1789 33.9776 12.2245 33.9917 12.2664C34.0542 12.5467 34.0736 12.7976 34.0499 13.0191C34.0347 13.2396 34.0078 13.4703 33.9691 13.7112C33.9379 13.9425 33.9192 14.2027 33.9129 14.4919C33.9142 14.7714 33.9673 15.1141 34.0723 15.52C34.1542 15.8152 34.2795 16.0743 34.4482 16.2971C34.6169 16.52 34.8083 16.6481 35.0223 16.6816C35.0847 16.691 35.0993 16.7022 35.066 16.7152C35.0414 16.7272 35.0204 16.7342 35.0032 16.7365C34.8463 16.7393 34.6924 16.6981 34.5415 16.6128C34.3906 16.5274 34.2493 16.4146 34.1176 16.2744C33.9944 16.1331 33.8862 15.9723 33.7929 15.7921C33.6997 15.6119 33.6365 15.4278 33.6034 15.2399C33.5275 14.8564 33.5017 14.4884 33.526 14.1357C33.5577 13.7733 33.5918 13.463 33.6283 13.2048C33.6365 13.1338 33.6426 13.0457 33.6464 12.9403C33.6577 12.8252 33.6541 12.7296 33.6355 12.6533C33.6255 12.576 33.5941 12.5363 33.5414 12.5344C33.4876 12.5239 33.4078 12.5823 33.3019 12.7096C33.1501 12.8866 33.0214 13.0737 32.9158 13.2709C32.8103 13.4681 32.7419 13.6823 32.7107 13.9135C32.6054 14.6525 32.4102 15.3726 32.1253 16.0736C32.1125 16.1102 32.0955 16.1474 32.0742 16.1851C32.0517 16.2142 32.0356 16.2251 32.0259 16.2176C32.0087 16.2198 32.0017 16.1989 32.0047 16.1548C32.0077 16.1107 32.0108 16.0666 32.0138 16.0225C32.0264 15.715 32.053 15.4144 32.0936 15.1208C32.1342 14.8271 32.17 14.5298 32.2009 14.2286C32.2393 13.9178 32.2643 13.6043 32.2758 13.2882C32.2947 12.9624 32.2852 12.6185 32.247 12.2564C32.2142 12.1383 32.1723 12.017 32.1212 11.8925C32.0787 11.7669 31.9733 11.6277 31.8049 11.4747C31.6085 11.3079 31.3938 11.2352 31.1606 11.2566C30.9274 11.2781 30.7411 11.3241 30.6017 11.3946C30.5105 11.4326 30.4135 11.4932 30.3106 11.5764C30.2164 11.6586 30.1281 11.753 30.0458 11.8598C29.9721 11.9655 29.9135 12.0867 29.8701 12.2234C29.8341 12.3504 29.8384 12.4853 29.8832 12.6281C29.9554 12.4439 30.0412 12.2624 30.1403 12.0835C30.2481 11.9035 30.3953 11.7577 30.5818 11.6462C30.6387 11.6126 30.7132 11.5811 30.8055 11.5517C30.8968 11.5136 30.9939 11.488 31.0971 11.4746C31.1991 11.4526 31.3039 11.4522 31.4115 11.4732C31.5191 11.4942 31.6177 11.547 31.7073 11.6315C31.8671 11.7856 31.9601 11.9309 31.9866 12.0673C32.0215 12.2026 32.0437 12.3395 32.0529 12.4781C32.068 12.7296 32.0599 12.971 32.0287 13.2023C31.9963 13.4249 31.9457 13.6412 31.8768 13.8511C31.8715 13.878 31.8556 13.9238 31.829 13.9884C31.8013 14.0444 31.7788 14.0736 31.7617 14.0758C31.7434 14.0694 31.726 14.0367 31.7096 13.9777C31.7007 13.9089 31.7032 13.8605 31.717 13.8325C31.7134 13.7368 31.7085 13.5977 31.7023 13.4149C31.695 13.2236 31.6785 13.0291 31.6529 12.8314C31.6348 12.624 31.6023 12.4404 31.5554 12.2804C31.5073 12.1118 31.4359 11.9988 31.341 11.9411C31.2559 11.891 31.1376 11.8888 30.9862 11.9346C30.8349 11.9805 30.7051 12.0584 30.5971 12.1686C30.489 12.2787 30.3975 12.3823 30.3227 12.4794C30.2565 12.5753 30.2037 12.6739 30.1644 12.7752C30.1239 12.8678 30.0895 12.9727 30.061 13.09C30.0399 13.1976 30.026 13.3262 30.0191 13.4756C30.0967 13.2646 30.1931 13.0642 30.3083 12.8745C30.4236 12.6848 30.5723 12.517 30.7544 12.371C30.8796 12.2587 30.9821 12.2061 31.0616 12.2133C31.1412 12.2204 31.1989 12.261 31.2347 12.335C31.2791 12.4079 31.3048 12.5051 31.3118 12.6266C31.3274 12.7469 31.3376 12.8592 31.3423 12.9634C31.3429 13.1032 31.3398 13.2478 31.333 13.3972C31.3261 13.5467 31.3138 13.6881 31.2961 13.8215ZM35.4091 16.6315C35.4091 16.6315 35.3876 16.6343 35.3447 16.6398C35.3275 16.6421 35.3054 16.6405 35.2785 16.6353C35.1549 16.6251 35.0193 16.5902 34.8717 16.5307C34.7231 16.4625 34.587 16.3228 34.4635 16.1116C34.418 16.0301 34.3777 15.9217 34.3427 15.7864C34.3077 15.6511 34.2819 15.519 34.2652 15.3901C34.2485 15.2612 34.2426 15.1483 34.2476 15.0516C34.2525 14.9548 34.2727 14.9085 34.3082 14.9126C34.3168 14.9115 34.3282 14.9319 34.3424 14.9738C34.364 15.0059 34.3825 15.0472 34.3977 15.0977C34.413 15.1481 34.4283 15.1986 34.4436 15.249C34.4588 15.2995 34.4681 15.3376 34.4715 15.3634C34.5043 15.4815 34.5413 15.599 34.5827 15.716C34.6229 15.8244 34.6707 15.9231 34.7259 16.0121C34.7856 16.1355 34.8807 16.263 35.0114 16.3946C35.1495 16.5165 35.267 16.58 35.3638 16.5849C35.409 16.5965 35.4241 16.6121 35.4091 16.6315ZM31.9377 17.0548C31.9627 17.1128 31.9666 17.1429 31.9494 17.1451C31.9065 17.1507 31.8693 17.1336 31.8379 17.094C31.7883 17.048 31.7359 16.9805 31.6806 16.8915C31.6243 16.7939 31.5848 16.6243 31.5623 16.3825C31.55 16.2879 31.5442 16.1751 31.5446 16.044C31.544 15.9042 31.5451 15.7774 31.5478 15.6634C31.558 15.5397 31.571 15.4375 31.5867 15.3569C31.6025 15.2762 31.6281 15.2379 31.6636 15.242C31.6722 15.2409 31.6793 15.2618 31.6849 15.3048C31.6979 15.3381 31.7078 15.3805 31.7145 15.4321C31.7297 15.4825 31.7407 15.5335 31.7474 15.5851C31.753 15.6281 31.7569 15.6582 31.7591 15.6754C31.7769 15.8129 31.7887 15.9381 31.7946 16.0509C31.7994 16.1552 31.8095 16.2674 31.8251 16.3878C31.8463 16.5511 31.8641 16.6886 31.8786 16.8003C31.893 16.9121 31.9128 16.9969 31.9377 17.0548ZM29.4753 13.0217C29.4231 13.3605 29.3359 13.6996 29.2138 14.0387C29.1003 14.3768 29.0109 14.6986 28.9456 15.0042C28.9392 15.0225 28.9265 15.0591 28.9074 15.114C28.8957 15.1592 28.8722 15.1797 28.8367 15.1756C28.8184 15.1692 28.8022 15.1451 28.788 15.1032C28.7813 15.0517 28.7763 15.013 28.773 14.9872C28.7552 14.8497 28.7533 14.6664 28.7673 14.4374C28.7888 14.1986 28.8159 14.0029 28.8485 13.8501C28.8591 13.7963 28.8724 13.6634 28.8887 13.4516C28.9124 13.2301 28.9254 12.9924 28.9275 12.7387C28.9381 12.4839 28.9328 12.2399 28.9113 12.0067C28.8984 11.7724 28.8552 11.6076 28.7817 11.5123C28.7396 11.4566 28.7357 11.4265 28.77 11.422C28.7958 11.4187 28.833 11.4357 28.8815 11.4731C28.9969 11.5543 29.0936 11.6598 29.1716 11.7895C29.2581 11.9181 29.3243 12.0581 29.3701 12.2095C29.4234 12.3511 29.4553 12.4956 29.4656 12.6428C29.4845 12.7889 29.4878 12.9152 29.4753 13.0217ZM29.1805 17.425C28.8906 17.2791 28.6588 17.1081 28.4848 16.9121C28.3195 16.7151 28.196 16.5039 28.1144 16.2785C28.0327 16.0531 27.9806 15.8195 27.9581 15.5777C27.9441 15.3349 27.9479 15.094 27.9694 14.8553C27.9981 14.537 28.0445 14.2207 28.1087 13.9066C28.1803 13.5827 28.2451 13.2728 28.3029 12.9769C28.3682 12.6713 28.4088 12.3777 28.4247 12.096C28.4493 11.8131 28.4239 11.5499 28.3487 11.3062C28.3442 11.2718 28.3463 11.2541 28.3549 11.253C28.3721 11.2507 28.3963 11.2694 28.4277 11.3091C28.618 11.5641 28.7278 11.8382 28.7571 12.1316C28.7863 12.4249 28.778 12.7319 28.7321 13.0524C28.6851 13.3644 28.6178 13.6877 28.53 14.0224C28.4498 14.3474 28.3959 14.6734 28.3683 15.0003C28.3509 15.2035 28.3481 15.418 28.3599 15.6437C28.3791 15.8597 28.4241 16.0723 28.4949 16.2816C28.5657 16.4909 28.6617 16.6926 28.783 16.8866C28.9129 17.0796 29.0743 17.2465 29.2674 17.3876C29.304 17.4003 29.3148 17.4164 29.2998 17.4358C29.2849 17.4552 29.2634 17.458 29.2354 17.4442C29.2171 17.4378 29.1988 17.4314 29.1805 17.425ZM29.677 17.4132C29.6535 17.4337 29.6174 17.4253 29.5689 17.3878C29.4654 17.3313 29.3614 17.2705 29.2569 17.2054C29.1609 17.1392 29.0588 17.0257 28.9506 16.8649C28.9084 16.8092 28.8726 16.7352 28.8432 16.6429C28.8138 16.5506 28.7935 16.4614 28.7823 16.3755C28.7701 16.2809 28.7644 16.203 28.7652 16.1418C28.7746 16.0794 28.7922 16.0465 28.818 16.0432C28.8535 16.0473 28.8854 16.0912 28.9137 16.175C28.9506 16.2576 28.9793 16.3106 28.9998 16.3342C29.0465 16.4243 29.0882 16.5106 29.1252 16.5933C29.161 16.6673 29.2011 16.7407 29.2455 16.8136C29.3126 16.9273 29.3775 17.0237 29.4402 17.103C29.5029 17.1823 29.5742 17.2604 29.6541 17.3375C29.6638 17.345 29.6741 17.3567 29.6849 17.3728C29.6957 17.3889 29.6931 17.4023 29.677 17.4132Z" fill="#E5DBC8"/>
<path d="M45.1058 11.7314C45.0907 12.1038 45.0191 12.484 44.8911 12.8718C44.7632 13.251 44.588 13.6077 44.3655 13.9419C44.143 14.2761 43.8778 14.5749 43.5699 14.8383C43.2708 15.0932 42.9381 15.2868 42.5717 15.4192C42.4583 15.4606 42.3932 15.4681 42.3763 15.4418C42.3768 15.4158 42.3901 15.3944 42.4164 15.3775C42.4514 15.3608 42.4909 15.3311 42.535 15.2885C42.8774 15.0344 43.1811 14.7666 43.446 14.4851C43.7109 14.2037 43.9372 13.8999 44.1248 13.5737C44.3126 13.2389 44.4532 12.8773 44.5466 12.4888C44.6487 12.1005 44.7037 11.6768 44.7116 11.2175C44.7186 10.8102 44.5986 10.4831 44.3515 10.2361C44.1132 9.98065 43.8165 9.84118 43.4616 9.81771C43.1846 9.7956 42.8974 9.85998 42.6001 10.0109C42.3116 10.1532 42.0433 10.3826 41.7951 10.6991C41.7893 10.5343 41.8354 10.3747 41.9334 10.2204C42.0314 10.0661 42.1594 9.93392 42.3173 9.82396C42.484 9.70549 42.672 9.61339 42.8811 9.54765C43.0903 9.48192 43.3032 9.45093 43.5198 9.45467C43.7278 9.45826 43.9307 9.5051 44.1285 9.59519C44.3265 9.67662 44.5019 9.80967 44.6547 9.99434C44.8075 10.179 44.9248 10.4151 45.0065 10.7025C45.0884 10.9813 45.1215 11.3243 45.1058 11.7314ZM41.3888 12.3953C41.258 12.9391 41.1185 13.4915 40.9701 14.0523C40.8305 14.6047 40.67 15.1176 40.4885 15.5913C40.4708 15.6083 40.4486 15.6382 40.4219 15.6811C40.4038 15.7241 40.3863 15.7368 40.3692 15.7192C40.3606 15.7191 40.3479 15.6972 40.3314 15.6535C40.323 15.6361 40.319 15.6143 40.3195 15.5883C40.3301 15.4758 40.3499 15.3332 40.3789 15.1603C40.4079 14.9874 40.4369 14.8102 40.4661 14.6287C40.5039 14.4473 40.5416 14.2703 40.5793 14.0976C40.6171 13.9162 40.6501 13.7608 40.6783 13.6312C40.6879 13.5794 40.7116 13.4628 40.7494 13.2814C40.7873 13.0914 40.8258 12.871 40.8648 12.6203C40.9125 12.3698 40.9561 12.1018 40.9957 11.8164C41.0441 11.5226 41.0837 11.2372 41.1145 10.9604C41.1453 10.6835 41.1626 10.4325 41.1665 10.2072C41.1791 9.982 41.1691 9.80847 41.1365 9.68656C41.1284 9.65175 41.1246 9.62134 41.1251 9.59535C41.1257 9.56069 41.1303 9.54343 41.139 9.54358C41.1563 9.54388 41.1734 9.55718 41.1903 9.58347C41.2072 9.60977 41.2198 9.63165 41.2281 9.64913C41.3208 9.80676 41.3867 10.0029 41.426 10.2376C41.474 10.4725 41.5 10.72 41.5042 10.9801C41.5171 11.2404 41.5083 11.4959 41.478 11.7468C41.4563 11.9978 41.4266 12.2139 41.3888 12.3953ZM41.8426 13.2223C41.7849 13.5507 41.7277 13.8487 41.6711 14.1164C41.6233 14.3757 41.571 14.6435 41.5142 14.9199C41.7171 14.7153 41.8936 14.532 42.0438 14.3699C42.2027 14.1993 42.34 14.0283 42.4557 13.857C42.58 13.6857 42.6915 13.5056 42.7901 13.3166C42.8973 13.1278 43.0008 12.9086 43.1005 12.6589C43.1822 12.4436 43.2426 12.2106 43.2816 11.9599C43.3206 11.7092 43.3327 11.5057 43.3181 11.3495C43.319 11.2975 43.3023 11.2582 43.2681 11.2316C43.2426 11.2051 43.1905 11.2086 43.1119 11.2419C43.0332 11.2839 42.9322 11.3601 42.8089 11.4707C42.6858 11.5726 42.5578 11.7091 42.4248 11.8801C42.3007 12.0427 42.1846 12.24 42.0765 12.4722C41.9687 12.6957 41.8907 12.9457 41.8426 13.2223ZM41.9544 12.015C41.991 11.903 42.0671 11.7613 42.1828 11.5899C42.2984 11.4185 42.4312 11.2605 42.581 11.1157C42.7309 10.9709 42.8888 10.861 43.0548 10.7858C43.2209 10.702 43.377 10.7004 43.5229 10.7809C43.626 10.8347 43.6935 10.9442 43.7253 11.1095C43.7573 11.266 43.7629 11.4438 43.7421 11.6428C43.7213 11.8418 43.6787 12.0535 43.6141 12.2777C43.5584 12.4935 43.4944 12.683 43.4223 12.8465C43.2144 13.337 42.9555 13.7746 42.6455 14.1593C42.3441 14.5441 41.9393 14.9012 41.4308 15.2305C41.4214 15.2736 41.4296 15.3041 41.4553 15.3219C41.4898 15.3312 41.5288 15.3318 41.5722 15.3239C41.6244 15.3162 41.6767 15.2997 41.7291 15.2746C41.7902 15.2497 41.8428 15.2159 41.8869 15.1733C41.9835 15.097 42.0891 15.0078 42.2035 14.9058C42.3267 14.8039 42.4454 14.7062 42.5597 14.6129C42.674 14.5195 42.7705 14.4475 42.8494 14.3968C42.9285 14.3375 42.9766 14.3123 42.9938 14.3213C43.0023 14.3301 42.9931 14.3603 42.9662 14.4118C42.9394 14.4547 42.9039 14.5061 42.8595 14.566C42.8151 14.6259 42.7708 14.6858 42.7264 14.7458C42.6822 14.797 42.6512 14.8311 42.6336 14.8482C42.5189 14.9675 42.413 15.0741 42.316 15.1677C42.2279 15.2529 42.1181 15.3377 41.9866 15.4221C41.8813 15.4983 41.7763 15.5528 41.6717 15.5857C41.576 15.61 41.4678 15.5995 41.3472 15.5541C41.2444 15.9857 41.1197 16.4343 40.9729 16.8998C40.8349 17.3655 40.7151 17.7795 40.6134 18.1418C40.5851 18.28 40.558 18.3402 40.5323 18.3224C40.5153 18.3048 40.5028 18.2742 40.4949 18.2308C40.4956 18.1874 40.4965 18.1398 40.4974 18.0878C40.5036 17.7238 40.5314 17.3733 40.5805 17.0361C40.6297 16.6989 40.6919 16.3575 40.7672 16.0121C40.8424 15.6754 40.922 15.3344 41.0059 14.9891C41.0987 14.6353 41.1917 14.2685 41.285 13.8887C41.3875 13.4745 41.4811 13.073 41.5658 12.6844C41.6593 12.2873 41.7406 11.8466 41.8097 11.3624C41.8392 11.1549 41.9075 10.9654 42.0145 10.7939C42.1215 10.6224 42.2496 10.4816 42.3988 10.3715C42.5483 10.2527 42.7101 10.1645 42.8845 10.1068C43.0675 10.0493 43.2457 10.022 43.419 10.025C43.7048 10.0386 43.9499 10.1512 44.1543 10.3628C44.3675 10.5658 44.4702 10.8926 44.4624 11.3432C44.4567 11.6725 44.3994 11.9792 44.2905 12.2634C44.1902 12.5477 44.0774 12.8058 43.9521 13.0377C43.9343 13.0634 43.8945 13.1103 43.8326 13.1786C43.7794 13.247 43.7443 13.2724 43.7273 13.2548C43.7188 13.246 43.7238 13.2071 43.7423 13.1381C43.7695 13.0692 43.7921 13.0132 43.8102 12.9702C43.8646 12.8325 43.9155 12.647 43.9628 12.4138C44.0102 12.1805 44.036 11.9426 44.0402 11.7C44.053 11.4575 44.0266 11.2317 43.9608 11.0225C43.9038 10.8135 43.7893 10.6642 43.6175 10.5745C43.4114 10.4669 43.2079 10.4504 43.0073 10.525C42.8155 10.591 42.6401 10.705 42.4813 10.8669C42.3312 11.029 42.2065 11.2176 42.1075 11.4326C42.0086 11.6389 41.9576 11.8331 41.9544 12.015ZM40.8573 9.29168C40.9793 9.75319 41.0186 10.2393 40.9751 10.7499C40.9404 11.2521 40.8621 11.7708 40.7402 12.3061C40.6184 12.8328 40.4792 13.3678 40.3224 13.9111C40.1657 14.4545 40.0306 14.9983 39.9172 15.5424C39.8601 15.8361 39.8113 16.1516 39.7709 16.489C39.7389 16.8352 39.7285 17.186 39.7397 17.5416C39.7509 17.8972 39.7882 18.2446 39.8517 18.5837C39.9237 18.9317 40.0352 19.2543 40.186 19.5516C40.2195 19.6215 40.2232 19.6563 40.1972 19.6558C40.1799 19.6555 40.15 19.629 40.1076 19.5763C39.9047 19.2781 39.7501 18.946 39.6437 18.5801C39.5459 18.223 39.4786 17.8535 39.4418 17.4715C39.4136 17.0983 39.4115 16.7212 39.4354 16.3402C39.4593 15.9592 39.5002 15.5959 39.5582 15.2501C39.6543 14.7057 39.7719 14.1703 39.911 13.644C40.0588 13.1178 40.1976 12.6045 40.3276 12.104C40.4576 11.6035 40.5657 11.1199 40.6517 10.6533C40.7466 10.1782 40.7848 9.72383 40.7663 9.29011C40.7673 9.22945 40.7765 9.19927 40.7938 9.19957C40.8027 9.19105 40.8155 9.19994 40.8324 9.22624C40.8493 9.25253 40.8576 9.27435 40.8573 9.29168ZM40.6262 19.6632C40.6 19.6715 40.5699 19.6579 40.5359 19.6227L40.4848 19.5698C40.3914 19.4555 40.3068 19.337 40.2309 19.2143C40.155 19.0917 40.0935 18.8869 40.0465 18.6001C40.0311 18.4871 40.0205 18.3483 40.0146 18.1835C40.0088 18.0187 40.0073 17.8583 40.0099 17.7023C40.0126 17.5463 40.0236 17.4122 40.0429 17.2998C40.0622 17.1875 40.0891 17.1359 40.1236 17.1452C40.1582 17.1458 40.1875 17.207 40.2114 17.3287C40.2353 17.4505 40.2506 17.5721 40.2571 17.6936C40.2716 17.8585 40.2777 18.006 40.2755 18.136C40.2818 18.2748 40.2967 18.4137 40.3203 18.5528C40.352 18.7267 40.3924 18.8964 40.4415 19.062C40.4907 19.2275 40.5487 19.3845 40.6154 19.533C40.6238 19.5505 40.6277 19.5766 40.6271 19.6112C40.6352 19.6461 40.6349 19.6634 40.6262 19.6632Z" fill="#E5DBC8"/>
<path d="M54.2932 11.5547C54.1682 11.8854 53.9963 12.2084 53.7773 12.5236C53.5583 12.8387 53.3514 13.1339 53.1566 13.4092C53.1452 13.4249 53.1189 13.4513 53.0776 13.4884C53.0449 13.5269 53.02 13.5447 53.0029 13.5419C52.9786 13.5291 52.97 13.5013 52.9771 13.4586C52.9856 13.4073 52.9912 13.3731 52.9941 13.356C53.0153 13.2804 53.043 13.1928 53.0771 13.093C53.1211 12.9861 53.1608 12.8784 53.1963 12.7701C53.2332 12.6532 53.2687 12.5449 53.3027 12.4451C53.3467 12.3382 53.3886 12.2441 53.4284 12.1628C53.5534 11.8848 53.6586 11.6475 53.7438 11.4507C53.8304 11.2454 53.9007 11.0594 53.9546 10.8926C54.0085 10.7259 54.0482 10.5655 54.0736 10.4116C54.1076 10.2591 54.1266 10.091 54.1307 9.90715C54.1334 9.83734 54.1448 9.79529 54.1647 9.78101C54.1832 9.77529 54.2032 9.78737 54.2246 9.81726C54.246 9.84716 54.2631 9.87634 54.276 9.90482C54.3832 10.1597 54.4391 10.4325 54.4438 10.7231C54.4499 11.0052 54.3997 11.2824 54.2932 11.5547ZM54.743 10.7462C54.8273 10.9271 54.8476 11.15 54.8038 11.4151C54.76 11.6802 54.6891 11.9496 54.5911 12.2232C54.4946 12.4884 54.3867 12.7429 54.2673 12.9867C54.148 13.2305 54.0585 13.4265 53.9988 13.5747C53.881 13.8627 53.7374 14.1464 53.5683 14.4259C53.3991 14.7054 53.2527 14.9535 53.129 15.1703C53.1162 15.1945 53.0985 15.2223 53.0757 15.2537C53.0544 15.2765 53.0351 15.2865 53.018 15.2837C53.0009 15.2809 52.9952 15.2623 53.0009 15.2281C53.0065 15.1939 53.0115 15.164 53.0157 15.1384C53.0678 14.6638 53.1947 14.2149 53.3964 13.7914C53.5996 13.3594 53.812 12.9246 54.0337 12.4869C54.1658 12.2188 54.2944 11.9458 54.4194 11.6678C54.5458 11.3813 54.6337 11.062 54.6831 10.71C54.6888 10.6758 54.6959 10.6594 54.7044 10.6608L54.743 10.7462ZM53.5734 10.3289C53.0165 10.4565 52.521 10.6908 52.0869 11.0319C51.6627 11.3659 51.3114 11.7646 51.0327 12.2281C50.9105 12.4362 50.8131 12.6266 50.7407 12.7991C50.6697 12.963 50.6044 13.1455 50.5448 13.3465C50.5292 13.3878 50.535 13.4327 50.5621 13.4811C50.5892 13.5295 50.6234 13.5351 50.6647 13.498C50.8497 13.3354 51.086 13.1285 51.3734 12.8773C51.6609 12.6261 51.9512 12.3579 52.2443 12.0725C52.5374 11.7872 52.8056 11.4933 53.0488 11.1909C53.3006 10.89 53.4755 10.6026 53.5734 10.3289ZM51.9954 14.5349C51.8375 14.6933 51.686 14.8395 51.5408 14.9737C51.3957 15.1078 51.2405 15.2227 51.0754 15.3184C50.9116 15.4055 50.7343 15.4684 50.5435 15.5072C50.3526 15.5459 50.141 15.5505 49.9087 15.5208C49.5211 15.4744 49.2424 15.3273 49.0725 15.0796C48.9112 14.8333 48.8175 14.5499 48.7914 14.2294C48.7653 13.9088 48.7877 13.5875 48.8585 13.2654C48.9392 12.9362 49.0315 12.6703 49.1352 12.4678C49.2788 12.1841 49.4365 11.9203 49.6086 11.6764C49.7907 11.4254 49.972 11.2051 50.1527 11.0153C50.3434 10.8184 50.5284 10.6558 50.7077 10.5273C50.897 10.3917 51.0757 10.2938 51.2438 10.2338C51.2523 10.2352 51.2708 10.2295 51.2993 10.2166C51.3363 10.2052 51.3527 10.2123 51.3485 10.2379C51.357 10.2393 51.3506 10.2514 51.3293 10.2743C51.308 10.2971 51.2873 10.3156 51.2674 10.3299C50.7464 10.7182 50.3054 11.1811 49.9442 11.7187C49.5916 12.2578 49.3473 12.8323 49.2113 13.4423C49.1774 13.5948 49.1541 13.7622 49.1415 13.9446C49.1375 14.1284 49.152 14.3065 49.185 14.4789C49.2279 14.6441 49.3001 14.7922 49.4014 14.9231C49.5042 15.0455 49.6582 15.1237 49.8634 15.1576C50.0258 15.1844 50.1797 15.1835 50.325 15.1548C50.4717 15.1176 50.612 15.0661 50.7458 15.0004C50.8811 14.9261 51.0042 14.8454 51.1152 14.7584C51.2362 14.6642 51.3429 14.5764 51.4354 14.4951C51.6418 14.3096 51.8367 14.1134 52.0202 13.9066C52.0485 13.7355 52.0846 13.5702 52.1286 13.4106C52.1811 13.2524 52.2421 13.0955 52.3117 12.9401C52.3572 12.8247 52.3941 12.7342 52.4225 12.6686C52.4609 12.5959 52.4936 12.531 52.5205 12.474C52.5575 12.4098 52.5902 12.3449 52.6186 12.2793C52.657 12.2066 52.7074 12.1139 52.77 12.0013C52.5936 12.2181 52.4193 12.4221 52.2472 12.6132C52.085 12.7973 51.9107 12.9749 51.7243 13.1461C51.5478 13.3102 51.3628 13.4729 51.1693 13.6341C50.9857 13.7883 50.7843 13.9438 50.5651 14.1009C50.3957 14.2222 50.2682 14.2494 50.1826 14.1826C50.0971 14.1157 50.0613 13.9868 50.0753 13.7959C50.1062 13.5024 50.1657 13.2223 50.2536 12.9558C50.3502 12.6906 50.483 12.4183 50.6522 12.1388C50.8086 11.8836 50.9892 11.6411 51.1941 11.4114C51.4075 11.1832 51.638 10.9841 51.8857 10.8142C52.1433 10.6372 52.4167 10.4979 52.7058 10.3964C52.9963 10.2863 53.2955 10.2303 53.6032 10.2284C53.6358 10.1372 53.6621 10.0581 53.682 9.99111C53.7104 9.92553 53.7345 9.85925 53.7544 9.79225C53.787 9.70102 53.8033 9.65541 53.8033 9.65541C53.8218 9.64968 53.8375 9.66106 53.8504 9.68954C53.8718 9.71943 53.8875 9.75717 53.8976 9.80275C53.9535 10.1019 53.9411 10.3897 53.8603 10.6662C53.7794 10.9427 53.6679 11.2186 53.5258 11.4938C53.3923 11.7704 53.2402 12.0527 53.0696 12.3407C52.9005 12.6202 52.7519 12.9075 52.6241 13.2026C52.4494 13.6217 52.3446 14.07 52.3096 14.5473C52.2846 15.0175 52.3992 15.4669 52.6534 15.8954C52.6734 15.9339 52.6834 15.9531 52.6834 15.9531C52.6734 15.9602 52.6492 15.9474 52.6107 15.9147C52.3882 15.7198 52.2304 15.5049 52.1375 15.2699C52.0545 15.0278 52.0072 14.7828 51.9954 14.5349ZM53.1948 10.0687C53.2091 10.0886 53.2027 10.1008 53.1756 10.1051C53.1571 10.1108 53.1122 10.1166 53.041 10.1223C52.9242 10.1382 52.7768 10.1797 52.5987 10.2469C52.4293 10.3155 52.2428 10.4077 52.0392 10.5234C51.8441 10.6405 51.6449 10.7832 51.4413 10.9516C51.2392 11.1115 51.0557 11.2919 50.8907 11.4931C50.7243 11.7027 50.5757 11.9109 50.4449 12.1177C50.3226 12.3259 50.216 12.5191 50.1251 12.6973C50.0441 12.8684 49.9795 13.0202 49.9312 13.1528C49.8843 13.2768 49.8567 13.3645 49.8482 13.4158C49.827 13.5441 49.8044 13.6809 49.7804 13.8262C49.7577 13.963 49.7544 14.0898 49.7702 14.2067C49.786 14.3235 49.8317 14.4189 49.9074 14.4929C49.983 14.5668 50.1084 14.6051 50.2837 14.6078C50.2922 14.6092 50.3143 14.6084 50.3499 14.6055C50.3869 14.5941 50.4233 14.5869 50.4589 14.584C50.4959 14.5726 50.528 14.5647 50.555 14.5604C50.5906 14.5575 50.6127 14.5567 50.6213 14.5581C50.627 14.5767 50.6149 14.5966 50.585 14.618C50.5637 14.6409 50.5331 14.6666 50.4932 14.6951C50.4548 14.7151 50.4163 14.7351 50.3779 14.7551C50.348 14.7765 50.3281 14.7908 50.3181 14.7979C50.0831 14.8909 49.8972 14.8997 49.7603 14.8243C49.6235 14.749 49.5236 14.6359 49.4607 14.4849C49.4077 14.3268 49.3797 14.1509 49.3766 13.9571C49.3835 13.7562 49.4039 13.5795 49.4379 13.427C49.5044 13.1306 49.6002 12.8434 49.7252 12.5654C49.8516 12.2788 49.9994 11.9958 50.1686 11.7163C50.3008 11.501 50.4808 11.2891 50.7085 11.0808C50.9376 10.8639 51.1845 10.672 51.4493 10.5049C51.7226 10.3393 51.9982 10.2135 52.2759 10.1277C52.555 10.0332 52.815 10.0015 53.0558 10.0326C53.1413 10.0467 53.1876 10.0587 53.1948 10.0687ZM52.9997 15.9527C53.0126 15.9811 53.014 15.9989 53.0041 16.0061C52.9784 16.0018 52.9456 15.9876 52.9057 15.9635C52.8829 15.9421 52.8229 15.8795 52.7259 15.7756C52.6289 15.6718 52.5703 15.5215 52.55 15.3249C52.5443 15.2537 52.5413 15.1654 52.5411 15.0599C52.551 14.9474 52.5636 14.844 52.5792 14.75C52.5947 14.6559 52.6124 14.5754 52.6323 14.5084C52.6607 14.4428 52.6877 14.4122 52.7134 14.4164C52.739 14.4206 52.7562 14.4762 52.7649 14.583C52.7821 14.6913 52.7929 14.759 52.7972 14.786C52.8031 14.91 52.8068 15.0204 52.8084 15.1173C52.8199 15.207 52.8321 15.2925 52.845 15.3737C52.8637 15.4734 52.8888 15.5873 52.9203 15.7155C52.9604 15.8451 52.9868 15.9242 52.9997 15.9527Z" fill="#E5DBC8"/>
<path d="M63.2648 13.1778C63.1985 13.4388 63.102 13.6808 62.9752 13.9039C62.851 14.1188 62.7198 14.3132 62.5816 14.4871C62.5517 14.523 62.5082 14.559 62.451 14.5951C62.402 14.6339 62.3636 14.6397 62.336 14.6126C62.3195 14.6072 62.3247 14.577 62.3516 14.522C62.3786 14.4669 62.396 14.427 62.404 14.4023C62.4416 14.3143 62.4818 14.2043 62.5244 14.0724C62.578 13.9348 62.6275 13.796 62.6729 13.6558C62.7182 13.5156 62.7527 13.381 62.7762 13.252C62.8106 13.1174 62.8302 13.0008 62.8348 12.902C62.8459 12.6142 62.773 12.4312 62.6161 12.3531C62.4701 12.2694 62.296 12.2586 62.0937 12.3207C61.8915 12.3828 61.6828 12.4929 61.4676 12.651C61.2525 12.8092 61.0882 12.9792 60.9747 13.1611C61.0482 13.1029 61.1381 13.0363 61.2443 12.9613C61.3614 12.8808 61.4841 12.8112 61.6124 12.7525C61.7434 12.6856 61.8718 12.6406 61.9977 12.6176C62.1345 12.5889 62.251 12.5948 62.3473 12.635C62.4518 12.678 62.5074 12.7597 62.5139 12.8802C62.5287 13.0034 62.5149 13.1447 62.4724 13.304C62.43 13.4634 62.367 13.6297 62.2836 13.8031C62.2002 13.9766 62.1166 14.1363 62.033 14.2823C61.8925 14.5192 61.7577 14.7671 61.6284 15.0258C61.4992 15.2846 61.396 15.5473 61.3188 15.8138C61.2526 16.0748 61.2166 16.3409 61.2108 16.6123C61.2159 16.8781 61.2799 17.1448 61.4029 17.4123C61.4114 17.4424 61.4171 17.467 61.42 17.4861C61.4229 17.5053 61.4036 17.4945 61.3621 17.4538C61.1878 17.2607 61.0613 17.0604 60.9827 16.8528C60.9124 16.6478 60.8749 16.4399 60.8703 16.2289C60.8657 16.0179 60.8885 15.8066 60.9387 15.5952C60.9971 15.3863 61.068 15.1815 61.1511 14.9807C61.2802 14.6945 61.4137 14.4508 61.5517 14.2495C61.6897 14.0482 61.8205 13.8127 61.9442 13.543C62.0167 13.3752 62.0404 13.2599 62.0151 13.1971C61.9926 13.126 61.9538 13.077 61.8987 13.0501C61.8189 13.0152 61.7094 13.0299 61.5702 13.0941C61.4419 13.1528 61.2921 13.2501 61.1206 13.3859C60.9574 13.5244 60.7848 13.6917 60.6029 13.8879C60.4293 14.0868 60.264 14.302 60.1071 14.5336C59.9584 14.7679 59.7892 15.0092 59.5996 15.2576C59.4208 15.5003 59.2582 15.7073 59.1117 15.8785C59.0548 15.9421 59.018 15.9712 59.0015 15.9659C58.985 15.9605 58.9739 15.9387 58.968 15.9004C58.9705 15.8647 58.9744 15.8386 58.9797 15.8222C59.0801 15.3992 59.2493 15.003 59.4872 14.6337C59.7251 14.2643 59.9808 13.8961 60.2544 13.5292C60.4196 13.3003 60.5671 13.0975 60.6971 12.921C60.8271 12.7444 60.9415 12.5036 61.0402 12.1985C61.0829 12.0665 61.1599 11.9412 61.2712 11.8223C61.3852 11.6952 61.5227 11.594 61.6837 11.5186C61.8557 11.4376 62.0485 11.3906 62.2622 11.3778C62.4758 11.3649 62.7009 11.4013 62.9374 11.4869C63.3305 11.6232 63.6049 11.8167 63.7606 12.0675C63.919 12.31 63.9954 12.5807 63.9898 12.8795C63.9925 13.181 63.9335 13.4898 63.813 13.8061C63.7034 14.1167 63.5717 14.4112 63.4179 14.6893C63.2964 14.896 63.1733 15.0793 63.0487 15.2394C62.924 15.3994 62.7992 15.5458 62.6743 15.6785C62.5494 15.8111 62.4313 15.9369 62.32 16.0557C62.2087 16.1746 62.1097 16.2974 62.0231 16.4242C62.0069 16.4463 61.9893 16.4725 61.9704 16.5028C61.9541 16.5249 61.9378 16.5333 61.9213 16.5279C61.9048 16.5226 61.8978 16.5021 61.9002 16.4664C61.9026 16.4308 61.9105 16.3923 61.9238 16.3511C61.998 16.0654 62.1136 15.8068 62.2705 15.5752C62.4301 15.3353 62.5951 15.0927 62.7656 14.8472C62.9388 14.5935 63.0953 14.3208 63.2353 14.0291C63.3752 13.7373 63.4681 13.3939 63.514 12.9988C63.5678 12.579 63.4718 12.2564 63.2258 12.0311C62.9799 11.8058 62.6474 11.7074 62.2283 11.7357C62.1709 11.7445 62.0929 11.7602 61.9944 11.783C61.8959 11.8058 61.7921 11.8451 61.683 11.9009C61.5821 11.9593 61.48 12.0356 61.3767 12.1297C61.2761 12.2156 61.1961 12.3218 61.137 12.4484C61.2839 12.332 61.4447 12.2292 61.6193 12.1399C61.794 12.0507 61.9675 11.9929 62.1399 11.9667C62.315 11.9323 62.4795 11.9309 62.6332 11.9624C62.7952 11.9966 62.9384 12.0748 63.0629 12.197C63.2067 12.3438 63.2849 12.5102 63.2975 12.6965C63.3128 12.8745 63.3019 13.035 63.2648 13.1778ZM60.6335 12.6954C60.4414 12.9794 60.2177 13.2486 59.9623 13.503C59.7152 13.7601 59.4968 14.0128 59.3071 14.2611C59.2935 14.275 59.2664 14.3026 59.2256 14.3441C59.1958 14.38 59.1657 14.3885 59.1354 14.3696C59.1216 14.356 59.1172 14.3272 59.1223 14.2833C59.1383 14.2339 59.1503 14.1968 59.1583 14.172C59.201 14.0401 59.2776 13.8736 59.3882 13.6725C59.5097 13.4659 59.6179 13.3005 59.7127 13.1763C59.7452 13.1322 59.8141 13.0178 59.9194 12.8333C60.0355 12.6431 60.1488 12.4338 60.2591 12.2054C60.3777 11.9796 60.4772 11.7567 60.5575 11.5367C60.646 11.3194 60.6774 11.152 60.6517 11.0344C60.6374 10.966 60.6467 10.9371 60.6797 10.9478C60.7044 10.9558 60.7307 10.9871 60.7586 11.0416C60.8282 11.1643 60.8706 11.301 60.8856 11.4516C60.9089 11.6049 60.9089 11.7597 60.8856 11.9162C60.8732 12.067 60.8402 12.2112 60.7866 12.3487C60.7413 12.4889 60.6902 12.6045 60.6335 12.6954ZM61.8321 17.6058C61.813 17.6087 61.7813 17.5939 61.7372 17.5614C61.7151 17.5452 61.6972 17.5303 61.6834 17.5167C61.5919 17.4051 61.5197 17.2907 61.4665 17.1733C61.4161 17.0476 61.387 16.856 61.3792 16.5985C61.3812 16.508 61.3939 16.3983 61.4174 16.2693C61.4519 16.1347 61.4932 16.0068 61.5415 15.8858C61.5897 15.7648 61.6355 15.6657 61.6786 15.5886C61.7327 15.5059 61.7804 15.4712 61.8216 15.4846C61.8381 15.4899 61.8386 15.5447 61.8231 15.649C61.8184 15.7477 61.8044 15.8616 61.7809 15.9906C61.7656 16.1223 61.7503 16.254 61.735 16.3857C61.7197 16.5174 61.711 16.6147 61.7088 16.6778C61.71 16.8148 61.7112 16.9518 61.7125 17.0889C61.7137 17.2259 61.745 17.3544 61.8063 17.4745C61.8175 17.4963 61.826 17.5264 61.8318 17.5647C61.8403 17.5948 61.8404 17.6085 61.8321 17.6058ZM58.4846 16.5501C58.285 16.2942 58.1484 16.0405 58.075 15.789C58.0097 15.5402 57.9884 15.2965 58.0109 15.0578C58.0335 14.8192 58.0862 14.5858 58.1692 14.3575C58.2604 14.132 58.3667 13.9159 58.4882 13.7093C58.6502 13.4338 58.8274 13.1677 59.0197 12.9111C59.223 12.649 59.4139 12.3965 59.5927 12.1537C59.7823 11.9054 59.9446 11.6573 60.0794 11.4094C60.2225 11.1642 60.3121 10.9154 60.3483 10.6629C60.3589 10.6299 60.3684 10.6148 60.3767 10.6175C60.3931 10.6228 60.4071 10.6501 60.4185 10.6993C60.4815 11.0112 60.4636 11.306 60.3646 11.5837C60.2657 11.8614 60.127 12.1353 59.9485 12.4055C59.7726 12.6674 59.5735 12.9309 59.3511 13.196C59.1396 13.4555 58.9516 13.7271 58.7869 14.0109C58.6843 14.1872 58.5901 14.3799 58.5042 14.5889C58.4293 14.7924 58.3791 15.0039 58.3536 15.2234C58.3281 15.4428 58.3288 15.6662 58.3554 15.8935C58.3904 16.1234 58.4649 16.3433 58.5792 16.5534C58.6068 16.5805 58.6097 16.5997 58.5879 16.6108C58.5661 16.622 58.5454 16.6153 58.526 16.5908C58.5122 16.5773 58.4984 16.5637 58.4846 16.5501ZM58.9386 16.7516C58.9085 16.7601 58.8795 16.7371 58.8516 16.6825C58.7823 16.5872 58.7142 16.4878 58.6476 16.3842C58.5891 16.2833 58.5453 16.1371 58.5162 15.9455C58.5019 15.8771 58.5012 15.7949 58.514 15.6988C58.5269 15.6028 58.5467 15.5135 58.5733 15.4311C58.6027 15.3404 58.6308 15.2675 58.6577 15.2124C58.6929 15.1601 58.7229 15.1379 58.7476 15.1459C58.7779 15.1648 58.788 15.2181 58.7778 15.3059C58.7759 15.3964 58.7791 15.4567 58.7876 15.4867C58.7912 15.5881 58.7921 15.684 58.7902 15.7745C58.7909 15.8567 58.7957 15.9403 58.8047 16.0251C58.8168 16.1566 58.8343 16.2716 58.8571 16.37C58.8799 16.4685 58.9109 16.5696 58.9502 16.6734C58.9558 16.6843 58.96 16.6994 58.963 16.7185C58.9659 16.7377 58.9577 16.7487 58.9386 16.7516Z" fill="#E5DBC8"/>
<path d="M71.4718 15.3226C71.4983 15.4304 71.5 15.5505 71.4768 15.6831C71.4615 15.8192 71.4172 15.9563 71.3438 16.0942C71.274 16.2243 71.177 16.3513 71.0528 16.4752C70.9285 16.5992 70.7747 16.7046 70.5912 16.7916C70.2393 16.9534 69.8911 17.0453 69.5467 17.0673C69.2138 17.0851 68.9372 17.043 68.717 16.941C68.5833 16.8791 68.5942 16.8555 68.7497 16.8702C68.8314 16.8794 68.9304 16.8822 69.0466 16.8788C69.1744 16.871 69.3097 16.8573 69.4525 16.8375C69.599 16.8098 69.751 16.7703 69.9085 16.719C70.0738 16.6714 70.2346 16.6026 70.3908 16.5126C70.6501 16.3652 70.8388 16.1947 70.9571 16.0011C71.0868 15.8034 71.1222 15.6239 71.063 15.4629C71.0123 15.3248 70.9259 15.2227 70.8037 15.1566C70.6852 15.0826 70.4655 15.0621 70.1446 15.095C69.8546 15.1231 69.5737 15.1936 69.3018 15.3065C69.0299 15.4193 68.7643 15.5495 68.505 15.6969C68.3675 15.7669 68.2831 15.7947 68.2516 15.7801C68.228 15.7692 68.2726 15.7039 68.3853 15.5841C68.6071 15.3526 68.8552 15.157 69.1296 14.9976C69.4119 14.8417 69.7092 14.7358 70.0216 14.6799C70.2492 14.642 70.4448 14.6323 70.6082 14.6506C70.7795 14.6726 70.9223 14.7148 71.0366 14.7773C71.1588 14.8434 71.2543 14.9259 71.3232 15.0246C71.3957 15.1155 71.4453 15.2148 71.4718 15.3226ZM71.7265 16.4433C71.6077 16.6175 71.4819 16.7551 71.3492 16.856C71.2281 16.9527 71.1024 17.0282 70.9722 17.0825C70.8535 17.1327 70.7381 17.1652 70.6261 17.1802C70.522 17.1989 70.4275 17.2172 70.3428 17.2353C70.3004 17.2443 70.275 17.2373 70.2665 17.2143C70.2581 17.1913 70.2826 17.1692 70.3402 17.1481C70.5363 17.0957 70.7507 17.0039 70.9833 16.8728C71.2274 16.7375 71.4098 16.5498 71.5306 16.3096C71.7235 15.8928 71.7687 15.5269 71.6662 15.212C71.5637 14.8972 71.3518 14.6845 71.0305 14.5739C70.7128 14.4555 70.3397 14.426 69.9111 14.4855C69.6368 14.5209 69.3752 14.5908 69.1263 14.6952C68.8889 14.7954 68.6639 14.9204 68.4513 15.0703C68.2423 15.2123 68.0493 15.3713 67.8724 15.5472C67.7033 15.7268 67.5538 15.9155 67.4241 16.1133C67.298 16.3032 67.1646 16.5088 67.0239 16.7302C66.891 16.9552 66.7836 17.1873 66.7016 17.4263C66.6275 17.6689 66.6003 17.9237 66.6199 18.1907C66.6433 18.4498 66.7462 18.7123 66.9287 18.9782C66.9571 19.02 66.9891 19.054 67.0248 19.08C67.0683 19.1097 67.0883 19.1285 67.0846 19.1364C67.0774 19.1521 67.0541 19.1509 67.0147 19.1327C66.9718 19.1223 66.9303 19.0984 66.8904 19.0608C66.712 18.9305 66.5793 18.7735 66.4924 18.59C66.4169 18.4023 66.3724 18.2098 66.3587 18.0124C66.345 17.8151 66.3546 17.619 66.3875 17.4241C66.4204 17.2292 66.4657 17.0592 66.5234 16.914C66.7638 16.2708 67.1343 15.6974 67.6349 15.1938C67.7403 15.0898 67.8649 14.9755 68.0085 14.851C68.1599 14.7301 68.3271 14.6165 68.51 14.5102C68.6966 14.396 68.8992 14.2988 69.1178 14.2185C69.3401 14.1304 69.5729 14.071 69.8162 14.0405C70.0481 14.0141 70.2751 14.0189 70.4972 14.0549C70.7193 14.0908 70.9268 14.1583 71.1198 14.2571C71.3164 14.3482 71.4849 14.4691 71.6251 14.62C71.769 14.763 71.8769 14.9323 71.9487 15.1279C72.0084 15.3084 72.0242 15.5115 71.9961 15.7372C71.9759 15.9666 71.886 16.202 71.7265 16.4433ZM70.8496 15.5216C70.893 15.6754 70.8247 15.8539 70.6447 16.0571C70.4683 16.2524 70.1957 16.4079 69.827 16.5237C69.6235 16.5919 69.4349 16.6383 69.2612 16.6629C69.091 16.6797 68.8892 16.6722 68.6556 16.6404C68.4307 16.8992 68.2391 17.1687 68.0808 17.4487C67.9225 17.7288 67.8211 17.9684 67.7767 18.1675C67.7518 18.2419 67.7426 18.3236 67.7492 18.4126C67.7673 18.4974 67.8065 18.5776 67.8669 18.6534C67.9389 18.7249 68.0435 18.7876 68.1809 18.8417C68.3182 18.8957 68.5034 18.9289 68.7364 18.9413C68.8024 18.9432 68.8357 18.9538 68.8363 18.9732C68.8484 18.9883 68.8139 19.001 68.7327 19.0112C68.5402 19.0558 68.3543 19.0652 68.1752 19.0396C67.9997 19.0061 67.8448 18.9487 67.7105 18.8675C67.5841 18.7898 67.488 18.688 67.4222 18.562C67.3642 18.4397 67.3504 18.3044 67.3809 18.1561C67.4454 17.8517 67.5507 17.5519 67.697 17.2567C67.8432 16.9615 68.023 16.6866 68.2363 16.432C68.4576 16.1811 68.7011 15.9643 68.9671 15.7818C69.2445 15.5951 69.5392 15.4641 69.851 15.3888C70.4322 15.2472 70.7651 15.2915 70.8496 15.5216ZM68.9894 19.2303C68.898 19.2835 68.7908 19.3293 68.6679 19.3679C68.5564 19.4023 68.4311 19.4255 68.2919 19.4374C68.1641 19.4451 68.0322 19.4414 67.896 19.4261C67.7677 19.4144 67.6446 19.3813 67.5266 19.3267C67.3221 19.232 67.1494 19.0995 67.0086 18.9293C66.8793 18.7548 66.8311 18.5081 66.8642 18.1891C66.863 18.1504 66.8679 18.1192 66.8788 18.0956C66.8934 18.0642 66.9085 18.0521 66.9243 18.0594C66.963 18.0582 66.989 18.0846 67.0023 18.1384C67.0192 18.1845 67.0342 18.2344 67.0475 18.2883C67.0867 18.4306 67.1549 18.572 67.2522 18.7126C67.3573 18.8568 67.4728 18.958 67.5987 19.0162C67.8346 19.1255 68.0555 19.1847 68.2613 19.194C68.4671 19.2034 68.6759 19.1854 68.8878 19.1403C68.9381 19.1349 68.9923 19.1313 69.0504 19.1296C69.1164 19.1315 69.096 19.1651 68.9894 19.2303ZM70.419 15.7091C70.4167 15.6316 70.279 15.6299 70.0059 15.7041C69.7595 15.7619 69.5375 15.8597 69.34 15.9975C69.154 16.131 68.9707 16.2897 68.7901 16.4735C68.9723 16.4719 69.1464 16.457 69.3123 16.4287C69.4818 16.3926 69.6416 16.3568 69.7918 16.3212C69.9571 16.2736 70.1055 16.1799 70.237 16.0403C70.3685 15.9006 70.4292 15.7902 70.419 15.7091Z" fill="#E5DBC8"/>
<path d="M77.755 16.7048C77.3758 17.1185 76.9566 17.515 76.4974 17.8942C76.0425 18.2658 75.6061 18.613 75.1882 18.9358C75.1722 18.9467 75.1301 18.9778 75.0619 19.0291C74.9979 19.0728 74.9583 19.0904 74.9431 19.082C74.9289 19.0542 74.9424 19.0121 74.9837 18.9558C75.0292 18.8919 75.0583 18.8485 75.0709 18.8258C75.1451 18.7282 75.2395 18.6122 75.3541 18.4776C75.473 18.3355 75.5956 18.1954 75.722 18.0575C75.8602 17.9162 75.9925 17.7766 76.1189 17.6387C76.2453 17.5008 76.357 17.3894 76.4539 17.3045C76.6687 17.0968 76.9068 16.8474 77.168 16.5564C77.4293 16.2654 77.6754 15.966 77.9064 15.6582C78.1373 15.3503 78.3308 15.0563 78.4868 14.7762C78.6546 14.4926 78.7386 14.2617 78.7388 14.0832C78.7347 14.0015 78.7482 13.9595 78.7794 13.957C78.8181 13.9587 78.8475 13.9949 78.8676 14.0657C78.918 14.2425 78.9106 14.4517 78.8455 14.6932C78.788 14.9389 78.6994 15.1872 78.5796 15.4379C78.464 15.681 78.3312 15.9196 78.1811 16.1534C78.0353 16.3797 77.8932 16.5635 77.755 16.7048ZM75.9505 19.3305C75.7845 19.4861 75.6181 19.6513 75.4512 19.8262C75.2886 19.9936 75.1319 20.1593 74.981 20.3233C74.8302 20.4872 74.6911 20.6479 74.5638 20.8052C74.4483 20.9591 74.3527 21.1042 74.2768 21.2405C74.2262 21.3314 74.1874 21.3742 74.1605 21.3692C74.1377 21.3565 74.1386 21.2925 74.1632 21.1772C74.2393 20.8625 74.3671 20.5617 74.5467 20.2748C74.7339 19.9922 74.9459 19.7184 75.1827 19.4535C75.4313 19.1852 75.6912 18.9233 75.9625 18.6676C76.2414 18.4162 76.5165 18.1627 76.7879 17.9071C77.1358 17.585 77.5016 17.2134 77.885 16.792C78.2684 16.3707 78.5875 15.9135 78.8423 15.4205C78.876 15.3599 78.8979 15.3473 78.9079 15.3827C78.918 15.418 78.9205 15.4492 78.9154 15.4761C78.9035 15.6579 78.838 15.8645 78.7191 16.0959C78.6077 16.3315 78.4572 16.575 78.2676 16.8265C78.0897 17.0746 77.8866 17.3236 77.6582 17.5734C77.4416 17.8198 77.2254 18.0565 77.0097 18.2836C76.7982 18.5031 76.5972 18.7036 76.4068 18.8853C76.2164 19.0669 76.0643 19.2153 75.9505 19.3305ZM74.0016 22.3223C74.0471 22.3476 74.0635 22.3716 74.0508 22.3943C74.0315 22.3935 74.018 22.3909 74.0104 22.3867L73.9763 22.3677C73.8131 22.2868 73.6727 22.1738 73.555 22.0289C73.4373 21.884 73.3436 21.7227 73.2739 21.545C73.2084 21.3598 73.1707 21.1602 73.1609 20.9464C73.1585 20.7368 73.1895 20.5209 73.2537 20.2987C73.3855 19.8662 73.5719 19.4691 73.813 19.1074C74.0659 18.7423 74.3365 18.4168 74.6247 18.1309C75.0106 17.7407 75.4041 17.3547 75.8052 16.973C76.2138 16.5954 76.5951 16.2225 76.9491 15.8542C77.3148 15.4825 77.6359 15.1107 77.9124 14.7389C78.1931 14.3596 78.4001 13.9789 78.5335 13.5969C78.5479 13.5354 78.5664 13.511 78.5891 13.5237C78.6085 13.5245 78.6135 13.5422 78.6042 13.5767C78.5992 13.6037 78.6021 13.6251 78.613 13.6411C78.5772 14.0973 78.4294 14.5408 78.1697 14.9715C77.9142 15.3947 77.5952 15.8073 77.2126 16.2092C76.8376 16.6154 76.4319 17.0144 75.9954 17.4063C75.5632 17.7905 75.16 18.1761 74.7858 18.5629C74.5381 18.8118 74.3004 19.0961 74.0728 19.4157C73.857 19.732 73.6925 20.0719 73.5793 20.4355C73.4577 20.8141 73.4338 21.1778 73.5075 21.5263C73.5888 21.8791 73.7535 22.1444 74.0016 22.3223ZM73.9772 21.5647C74.0232 21.8383 74.1497 22.0476 74.3566 22.1926C74.4163 22.2457 74.4226 22.279 74.3754 22.2924C74.3401 22.3025 74.2997 22.2948 74.2542 22.2695C74.1255 22.1979 74.0052 22.111 73.8934 22.0091C73.7891 21.9113 73.7143 21.7606 73.6691 21.5568C73.6507 21.4473 73.6546 21.3156 73.6809 21.1616C73.7113 21 73.751 20.8485 73.8 20.7072C73.849 20.5658 73.9009 20.4459 73.9557 20.3475C74.0105 20.249 74.0531 20.2082 74.0833 20.2251C74.0909 20.2293 74.0896 20.2584 74.0795 20.3122C74.0735 20.3585 74.0634 20.4124 74.049 20.4738C74.0388 20.5277 74.0266 20.5853 74.0122 20.6468C74.002 20.7006 73.9944 20.741 73.9894 20.768C73.9335 21.0642 73.9294 21.3298 73.9772 21.5647Z" fill="#E5DBC8"/>
<path d="M82.0644 19.2001C81.6556 19.5847 81.2083 19.9491 80.7224 20.2933C80.2412 20.6303 79.7804 20.9443 79.3398 21.2354C79.323 21.2451 79.2787 21.273 79.2069 21.3191C79.1398 21.358 79.099 21.3726 79.0846 21.3631C79.0724 21.3343 79.089 21.2934 79.1343 21.2402C79.1844 21.1798 79.2166 21.1388 79.2309 21.117C79.3121 21.0252 79.4148 20.9164 79.5391 20.7907C79.6681 20.6577 79.8007 20.5271 79.937 20.3989C80.0852 20.2683 80.2275 20.1388 80.3637 20.0106C80.5 19.8824 80.6196 19.7795 80.7225 19.702C80.9521 19.5108 81.2079 19.2797 81.49 19.0088C81.772 18.7379 82.0396 18.4575 82.2926 18.1675C82.5457 17.8776 82.7604 17.5987 82.9367 17.3308C83.125 17.0605 83.2258 16.8363 83.2392 16.6584C83.2411 16.5766 83.2577 16.5357 83.2889 16.5355C83.3274 16.5401 83.3541 16.5784 83.3689 16.6504C83.4061 16.8305 83.3833 17.0385 83.3005 17.2746C83.225 17.5154 83.1183 17.7564 82.9803 17.9976C82.8471 18.2315 82.697 18.4596 82.5301 18.6817C82.3679 18.8966 82.2127 19.0694 82.0644 19.2001ZM80.0708 21.6854C79.8938 21.8282 79.7156 21.9807 79.5363 22.1428C79.3617 22.2977 79.1932 22.4513 79.0306 22.6037C78.8681 22.7561 78.7175 22.9061 78.579 23.0535C78.4524 23.1985 78.3463 23.3361 78.2605 23.4664C78.2033 23.5533 78.1615 23.5932 78.135 23.5862C78.1133 23.5719 78.1189 23.5081 78.1519 23.395C78.2511 23.0867 78.4008 22.7962 78.6011 22.5234C78.8086 22.2553 79.0402 21.9979 79.296 21.7512C79.5637 21.5021 79.8423 21.26 80.1318 21.0252C80.4285 20.7951 80.7216 20.5626 81.011 20.3277C81.3819 20.0322 81.774 19.6886 82.1876 19.2967C82.6011 18.9049 82.9531 18.4725 83.2435 17.9996C83.2816 17.9417 83.3044 17.9308 83.3118 17.9668C83.3193 18.0028 83.3195 18.034 83.3124 18.0605C83.287 18.241 83.2065 18.4422 83.0708 18.6641C82.9423 18.8908 82.7742 19.1226 82.5665 19.3594C82.3708 19.5937 82.1498 19.827 81.9036 20.0592C81.6694 20.2889 81.4364 20.509 81.2045 20.7195C80.9773 20.9228 80.7621 21.108 80.5587 21.275C80.3554 21.4421 80.1928 21.5789 80.0708 21.6854ZM77.9062 24.525C77.9497 24.5536 77.9642 24.5787 77.9499 24.6004C77.9307 24.5982 77.9175 24.5946 77.9102 24.5899L77.8776 24.5684C77.7209 24.4756 77.5891 24.3526 77.4824 24.1994C77.3758 24.0462 77.2943 23.8784 77.2379 23.696C77.1863 23.5065 77.1635 23.3047 77.1694 23.0907C77.1826 22.8815 77.2294 22.6685 77.3098 22.4517C77.4732 22.0301 77.6885 21.6478 77.9557 21.3049C78.2348 20.9595 78.5287 20.6549 78.8372 20.391C79.2509 20.0304 79.6719 19.6746 80.1001 19.3235C80.5355 18.9772 80.9433 18.6334 81.3235 18.2923C81.7157 17.9486 82.0633 17.6016 82.3665 17.2513C82.6745 16.8937 82.9091 16.5293 83.0704 16.1582C83.0892 16.098 83.1095 16.075 83.1313 16.0893C83.1505 16.0916 83.1542 16.1096 83.1424 16.1434C83.1353 16.1698 83.1367 16.1915 83.1464 16.2082C83.0769 16.6605 82.8968 17.0919 82.606 17.5022C82.3199 17.9054 81.9713 18.2932 81.5601 18.6658C81.1561 19.0432 80.722 19.4112 80.2578 19.7697C79.7983 20.1209 79.3677 20.4756 78.966 20.8338C78.7006 21.0637 78.4426 21.3296 78.192 21.6316C77.9534 21.9311 77.7642 22.2579 77.6245 22.6121C77.4752 22.9807 77.4245 23.3416 77.4722 23.6947C77.5272 24.0525 77.6719 24.3293 77.9062 24.525ZM77.9378 23.7676C77.9635 24.0439 78.0741 24.262 78.2698 24.4219C78.3254 24.4792 78.3292 24.5129 78.2812 24.5228C78.2452 24.5302 78.2055 24.5196 78.162 24.491C78.039 24.41 77.9254 24.3145 77.8214 24.2046C77.7246 24.0994 77.6612 23.9435 77.6311 23.737C77.6209 23.6265 77.6345 23.4954 77.6721 23.3437C77.7144 23.1848 77.7652 23.0367 77.8245 22.8993C77.8838 22.762 77.9444 22.6462 78.0063 22.5521C78.0683 22.458 78.1137 22.4205 78.1427 22.4395C78.1499 22.4443 78.1465 22.4732 78.1324 22.5261C78.123 22.5719 78.1089 22.6248 78.09 22.685C78.0759 22.738 78.0594 22.7946 78.0406 22.8548C78.0264 22.9078 78.0159 22.9475 78.0088 22.974C77.9312 23.2653 77.9075 23.5298 77.9378 23.7676Z" fill="#E5DBC8"/>
<path d="M87.5607 25.8215C87.2782 26.034 86.9601 26.2147 86.6064 26.3638C86.2527 26.5128 85.92 26.6515 85.6081 26.7797C85.5901 26.7869 85.5537 26.7951 85.499 26.8043C85.4507 26.8194 85.4201 26.8211 85.4072 26.8096C85.3936 26.7858 85.4012 26.7577 85.43 26.7254C85.4647 26.6866 85.4877 26.6607 85.4993 26.6478C85.5577 26.5954 85.628 26.5361 85.7101 26.4701C85.8045 26.4033 85.8957 26.3337 85.9837 26.2611C86.0774 26.1821 86.1653 26.1096 86.2475 26.0435C86.3419 25.9768 86.4277 25.9197 86.5048 25.8724C86.7591 25.7044 86.975 25.5602 87.1522 25.4396C87.3353 25.3125 87.4942 25.193 87.629 25.081C87.7638 24.969 87.8832 24.8547 87.987 24.7383C88.0973 24.6277 88.2034 24.4958 88.3052 24.3427C88.3448 24.2852 88.3769 24.2558 88.4014 24.2544C88.4201 24.2595 88.4305 24.2804 88.4326 24.3171C88.4347 24.3538 88.4335 24.3876 88.4292 24.4185C88.3833 24.6912 88.2846 24.9516 88.133 25.1996C87.9871 25.4412 87.7964 25.6484 87.5607 25.8215ZM88.3734 25.3793C88.3478 25.5771 88.2456 25.7763 88.0667 25.9768C87.8879 26.1773 87.6838 26.3669 87.4546 26.5457C87.2312 26.718 87.0038 26.8752 86.7725 27.0172C86.5412 27.1593 86.3607 27.277 86.231 27.3703C85.9773 27.5505 85.7042 27.7134 85.4117 27.8589C85.1192 28.0045 84.8628 28.1357 84.6423 28.2526C84.6185 28.2662 84.5886 28.2802 84.5526 28.2946C84.5224 28.3024 84.5008 28.3006 84.4879 28.289C84.4749 28.2775 84.48 28.2588 84.5031 28.2329C84.5262 28.2071 84.5464 28.1844 84.5637 28.165C84.8616 27.792 85.2091 27.4807 85.6061 27.231C86.009 26.9748 86.4211 26.7211 86.8426 26.47C87.0977 26.3143 87.3524 26.1525 87.6068 25.9846C87.867 25.8102 88.1121 25.5875 88.3422 25.3166C88.3653 25.2907 88.38 25.2807 88.3865 25.2864L88.3734 25.3793ZM87.6087 24.4008C87.07 24.2105 86.526 24.1433 85.9767 24.1991C85.4397 24.2542 84.9295 24.403 84.4461 24.6453C84.2314 24.7558 84.0473 24.8645 83.8938 24.9714C83.7461 25.0719 83.5933 25.1911 83.4354 25.329C83.4001 25.3555 83.381 25.3965 83.378 25.4519C83.375 25.5073 83.4009 25.5304 83.4556 25.5212C83.6989 25.4828 84.0092 25.4344 84.3865 25.3761C84.7637 25.3178 85.1525 25.2465 85.5528 25.1624C85.9531 25.0782 86.337 24.9735 86.7042 24.8482C87.078 24.7287 87.3795 24.5796 87.6087 24.4008ZM84.0248 27.1092C83.8066 27.1585 83.6003 27.2009 83.4059 27.2366C83.2115 27.2722 83.019 27.2862 82.8283 27.2787C82.6433 27.2646 82.4599 27.2229 82.2779 27.1535C82.0959 27.084 81.9148 26.9747 81.7344 26.8253C81.4319 26.5786 81.2751 26.3052 81.2642 26.005C81.2597 25.7107 81.3322 25.4211 81.4817 25.1364C81.6312 24.8516 81.8221 24.5922 82.0543 24.358C82.2987 24.1231 82.5189 23.9479 82.7149 23.8324C82.988 23.6695 83.2625 23.5311 83.5383 23.4172C83.8264 23.3026 84.0976 23.2135 84.3518 23.1499C84.6182 23.0856 84.8615 23.0472 85.0818 23.0347C85.3143 23.0215 85.5176 23.0344 85.6917 23.0736C85.6982 23.0794 85.7169 23.0845 85.7478 23.0888C85.7852 23.099 85.7952 23.1138 85.7779 23.1332C85.7844 23.1389 85.7725 23.1457 85.7423 23.1536C85.712 23.1615 85.6847 23.1661 85.6602 23.1675C85.0124 23.2166 84.392 23.3717 83.7992 23.6325C83.2128 23.8992 82.699 24.2538 82.2577 24.6963C82.1474 24.8069 82.0381 24.9359 81.9298 25.0832C81.8281 25.2363 81.745 25.3945 81.6806 25.5578C81.6285 25.7203 81.6102 25.8841 81.6257 26.0489C81.647 26.2073 81.7353 26.3557 81.8905 26.4942C82.0134 26.6038 82.1438 26.6854 82.2819 26.7389C82.4258 26.786 82.5718 26.8175 82.7201 26.8337C82.8741 26.8433 83.0213 26.8411 83.1616 26.8269C83.3142 26.8121 83.4514 26.7951 83.573 26.7759C83.8466 26.7296 84.1163 26.6682 84.382 26.5917C84.4974 26.4624 84.6164 26.342 84.739 26.2307C84.868 26.1252 85.0035 26.0254 85.1454 25.9314C85.2456 25.8581 85.3253 25.8014 85.3844 25.7612C85.4557 25.7203 85.518 25.683 85.5713 25.6493C85.6369 25.6149 85.6992 25.5776 85.7583 25.5374C85.8296 25.4965 85.9219 25.4452 86.035 25.3835C85.7699 25.4723 85.5136 25.5513 85.2659 25.6207C85.0304 25.6893 84.7881 25.7461 84.539 25.7909C84.3021 25.8351 84.0588 25.8735 83.809 25.9062C83.5714 25.9381 83.318 25.9618 83.0488 25.9771C82.8408 25.9889 82.7185 25.9437 82.682 25.8414C82.6455 25.7392 82.6842 25.6111 82.7982 25.4573C82.9815 25.2259 83.1816 25.0212 83.3985 24.8431C83.622 24.6708 83.8799 24.5118 84.1724 24.3663C84.4411 24.2344 84.7235 24.1262 85.0194 24.0418C85.3219 23.9632 85.6232 23.9185 85.9233 23.9075C86.2357 23.8959 86.5412 23.9245 86.8397 23.9934C87.1441 24.0559 87.4267 24.1687 87.6876 24.3319C87.7641 24.2723 87.8286 24.2195 87.8812 24.1735C87.9403 24.1333 87.9961 24.0902 88.0488 24.0443C88.1252 23.9847 88.1634 23.9549 88.1634 23.9549C88.1821 23.96 88.1892 23.978 88.1849 24.0089C88.187 24.0456 88.18 24.0859 88.1641 24.1298C88.0513 24.4124 87.8868 24.6489 87.6705 24.8392C87.4542 25.0296 87.2124 25.2029 86.9451 25.3593C86.6843 25.5215 86.4047 25.6786 86.1065 25.8306C85.814 25.9762 85.5348 26.1394 85.2689 26.3202C84.897 26.5808 84.5686 26.9033 84.2835 27.2879C84.0108 27.6717 83.8671 28.1126 83.8525 28.6106C83.8488 28.6538 83.8469 28.6754 83.8469 28.6754C83.8347 28.6761 83.8211 28.6523 83.806 28.6041C83.7224 28.3203 83.7042 28.0544 83.7514 27.8062C83.8109 27.5572 83.902 27.3249 84.0248 27.1092ZM87.4281 23.9783C87.4295 24.0028 87.4176 24.0096 87.3925 23.9988C87.3738 23.9937 87.3328 23.9746 87.2695 23.9413C87.1624 23.8922 87.0156 23.8484 86.8293 23.8099C86.6494 23.7772 86.4425 23.7552 86.2086 23.7439C85.9812 23.7385 85.7365 23.7524 85.4744 23.7857C85.2182 23.8126 84.9665 23.8668 84.7195 23.9484C84.4667 24.0365 84.2297 24.1328 84.0086 24.2375C83.7939 24.3479 83.6004 24.4541 83.4282 24.556C83.2683 24.6571 83.1324 24.7508 83.0207 24.837C82.9147 24.9167 82.8445 24.9759 82.8098 25.0147C82.7233 25.1117 82.631 25.2152 82.5329 25.3251C82.4406 25.4286 82.3698 25.5339 82.3207 25.641C82.2715 25.7482 82.2591 25.8532 82.2834 25.9562C82.3077 26.0592 82.3931 26.1587 82.5398 26.2547C82.5462 26.2604 82.5653 26.2716 82.5969 26.2882C82.6343 26.2984 82.6689 26.3118 82.7005 26.3284C82.7379 26.3385 82.7692 26.349 82.7944 26.3599C82.826 26.3765 82.8451 26.3877 82.8515 26.3934C82.8464 26.4121 82.8256 26.4225 82.7888 26.4246C82.7586 26.4325 82.719 26.4378 82.6701 26.4406C82.6269 26.4369 82.5837 26.4332 82.5405 26.4296C82.5038 26.4316 82.4793 26.433 82.4671 26.4337C82.2189 26.3865 82.0571 26.2944 81.9818 26.1575C81.9065 26.0206 81.8827 25.8716 81.9103 25.7104C81.9502 25.5486 82.0207 25.385 82.1218 25.2196C82.2351 25.0536 82.3469 24.9152 82.4572 24.8046C82.6721 24.5898 82.9067 24.3984 83.1611 24.2305C83.4213 24.0561 83.6976 23.8961 83.9901 23.7506C84.217 23.6394 84.4824 23.5568 84.7862 23.5027C85.0958 23.4421 85.4071 23.4121 85.7202 23.4127C86.0397 23.419 86.3398 23.4603 86.6203 23.5363C86.9067 23.606 87.1432 23.7183 87.3301 23.8734C87.3948 23.9311 87.4274 23.9661 87.4281 23.9783ZM84.1144 28.8443C84.11 28.8753 84.1017 28.8911 84.0894 28.8918C84.07 28.8745 84.0499 28.8449 84.0291 28.8031C84.0213 28.7729 84.0042 28.6879 83.9778 28.5483C83.9514 28.4086 83.9823 28.2503 84.0705 28.0734C84.1037 28.0101 84.1485 27.9339 84.2048 27.8448C84.2733 27.755 84.3393 27.6745 84.4028 27.6033C84.4662 27.5322 84.5243 27.4736 84.5769 27.4277C84.636 27.3875 84.6753 27.376 84.6947 27.3934C84.7141 27.4107 84.6988 27.4668 84.649 27.5617C84.6056 27.6624 84.5785 27.7253 84.5677 27.7505C84.5063 27.8583 84.4503 27.9536 84.3998 28.0362C84.3615 28.1182 84.3261 28.197 84.2936 28.2725C84.256 28.3667 84.2162 28.4764 84.1742 28.6015C84.1387 28.7324 84.1187 28.8134 84.1144 28.8443Z" fill="#E5DBC8"/>
</svg>
